<?xml version="1.0" standalone="no"?>
<!DOCTYPE svg PUBLIC "-//W3C//DTD SVG 20010904//EN"
 "http://www.w3.org/TR/2001/REC-SVG-20010904/DTD/svg10.dtd">
<svg version="1.0" xmlns="http://www.w3.org/2000/svg"
 width="700.000000pt" height="700.000000pt" viewBox="0 0 700.000000 700.000000"
 preserveAspectRatio="xMidYMid meet">
<metadata>
Created by potrace 1.11, written by Peter Selinger 2001-2013
</metadata>
<g transform="translate(0.000000,700.000000) scale(0.100000,-0.100000)"
fill="#000000" stroke="none">
<path d="M2089 6154 c-73 -53 -156 -167 -216 -293 -45 -95 -54 -122 -52 -160
3 -40 1 -46 -17 -45 -10 1 -26 4 -35 8 -15 6 -15 2 -6 -38 13 -56 5 -67 -28
-36 l-25 23 -1 -34 c-1 -19 -2 -66 -3 -106 -1 -39 -4 -75 -8 -79 -11 -10 -39
16 -31 30 3 6 2 8 -2 3 -5 -4 -9 -16 -10 -27 -1 -11 0 -18 3 -15 2 2 20 -7 38
-22 l34 -25 0 109 c0 60 3 113 7 116 3 4 15 0 25 -10 23 -21 33 -11 30 32 -2
28 1 34 20 37 13 2 22 5 21 8 -14 34 118 317 197 423 97 131 131 114 170 -84
23 -118 24 -120 64 -152 80 -63 128 -126 249 -324 5 -8 -6 -19 -30 -31 -73
-37 -75 -36 -116 18 -21 28 -44 50 -52 50 -17 0 -20 -16 -5 -25 11 -7 53 -85
48 -90 -2 -1 -14 -8 -27 -15 -23 -12 -27 -10 -40 11 -9 13 -31 40 -49 59 -32
34 -32 34 -22 7 5 -15 21 -44 35 -64 23 -35 24 -37 6 -50 -11 -7 -30 -17 -43
-22 -24 -9 -26 -6 -42 50 -10 32 -22 59 -27 59 -13 0 -11 -32 5 -77 19 -55 3
-82 -19 -31 -8 21 -15 44 -15 52 0 16 -18 31 -27 23 -3 -3 4 -31 16 -61 20
-55 20 -56 1 -66 -17 -9 -23 -3 -54 57 -29 57 -35 63 -36 40 0 -15 6 -40 14
-55 28 -56 28 -68 0 -81 -15 -6 -28 -10 -30 -8 -2 2 -19 39 -38 83 -19 43 -41
79 -48 79 -17 0 -16 -5 26 -99 l35 -79 -107 -49 c-59 -27 -114 -57 -124 -68
-9 -11 -21 -20 -26 -20 -6 0 -29 33 -51 73 -50 89 -52 84 -6 -16 19 -42 35
-84 35 -94 0 -10 -13 -31 -28 -48 -15 -16 -135 -159 -265 -318 l-239 -287 6
-200 5 -200 -27 -15 c-57 -30 -58 -32 -38 -53 14 -17 18 -41 19 -148 2 -113
-6 -220 -18 -257 -2 -7 -6 -29 -9 -49 -11 -72 -66 -322 -74 -329 -4 -4 -20 12
-37 37 -44 65 -50 53 -11 -23 27 -54 49 -80 108 -128 40 -32 75 -58 76 -56 7
6 62 -53 62 -66 0 -17 -80 -93 -98 -93 -8 0 -21 18 -29 40 -9 22 -19 40 -22
40 -9 0 -74 -107 -94 -155 -10 -22 -23 -51 -30 -64 -13 -27 -170 -166 -202
-180 -12 -5 -52 -12 -90 -15 -38 -4 -71 -9 -74 -10 -18 -11 -51 21 -105 99
l-62 90 -117 0 c-65 0 -121 -2 -126 -5 -5 -3 -20 -28 -34 -55 -25 -51 -32 -86
-42 -225 -4 -47 -22 -129 -51 -221 l-46 -147 75 -173 74 -173 -34 -79 -34 -78
23 -18 c13 -11 81 -66 152 -124 l129 -106 171 -41 c94 -22 182 -43 196 -46 14
-3 -11 12 -55 34 -44 22 -130 52 -192 68 -86 22 -119 35 -146 59 -105 92 -164
144 -184 161 -27 22 -28 39 -5 124 l18 65 -72 149 -72 149 35 101 c19 55 49
173 66 260 l32 159 82 41 c45 23 85 42 90 43 4 1 45 -47 90 -106 74 -98 84
-116 107 -201 21 -77 33 -101 64 -134 21 -23 72 -77 113 -120 132 -142 158
-163 267 -225 59 -33 147 -84 196 -113 l88 -53 41 -105 c22 -58 64 -165 93
-239 29 -73 50 -139 48 -145 -3 -7 -34 -29 -69 -50 -94 -55 -90 -64 7 -15 65
32 185 121 228 169 33 37 175 151 177 143 2 -6 -5 -34 -16 -62 -12 -34 -15
-51 -8 -50 7 0 53 13 102 28 50 16 93 27 98 24 4 -2 7 -26 7 -53 l0 -48 48 20
c43 18 48 23 44 46 l-5 26 -23 -29 -23 -29 -10 27 c-6 16 -14 39 -17 53 -3 13
-10 26 -14 29 -5 3 -42 -11 -83 -30 -41 -19 -77 -35 -81 -35 -9 0 -7 30 4 71
10 34 20 42 151 113 l141 77 76 -44 c210 -120 218 -121 44 -2 -62 42 -119 75
-126 73 -6 -2 -150 -86 -319 -188 -229 -137 -309 -190 -315 -208 -7 -22 -11
-17 -36 48 l-29 73 49 46 c28 25 83 75 124 111 41 36 77 67 80 70 45 48 416
330 433 330 1 0 11 -15 21 -34 28 -53 192 -157 268 -171 29 -6 43 -2 68 17 38
28 93 119 117 191 9 29 17 54 19 56 6 7 223 -160 294 -227 19 -19 55 -53 79
-75 l43 -42 -17 34 c-9 18 -53 71 -96 116 -44 46 -95 100 -112 121 -71 85
-103 117 -155 157 -52 41 -56 46 -106 177 -57 150 -122 277 -149 294 -15 9
-21 7 -33 -8 -8 -11 -14 -31 -14 -44 0 -27 -89 -295 -126 -380 -13 -28 -27
-52 -32 -52 -17 0 -244 -175 -352 -270 -154 -136 -194 -175 -304 -293 -54 -58
-102 -104 -106 -102 -7 4 -31 116 -35 160 -5 45 -28 100 -98 224 -74 134 -78
145 -62 157 92 68 463 436 540 537 59 78 57 97 -3 28 -76 -88 -329 -341 -432
-432 -52 -46 -97 -86 -100 -89 -33 -33 -37 -31 -71 27 -18 32 -40 71 -48 86
-8 16 -69 74 -135 130 -67 56 -123 104 -126 108 -3 4 -40 16 -83 28 -69 19
-165 66 -155 76 2 2 46 20 97 40 105 40 112 44 237 163 50 48 149 141 219 207
71 66 160 149 198 185 38 36 73 67 78 68 5 2 9 8 9 14 0 6 -39 131 -86 277
-92 285 -90 278 -99 481 -3 74 -10 191 -14 260 -5 73 -4 135 1 150 25 68 238
438 273 475 105 112 422 441 440 458 20 18 108 58 620 273 233 99 330 148 569
292 88 53 101 66 198 187 151 191 141 183 133 105 -4 -36 -9 -68 -11 -71 -9
-15 -114 -363 -112 -370 2 -3 66 33 143 82 106 67 164 97 238 121 53 18 97 38
97 44 0 7 -70 -15 -167 -53 -208 -80 -223 -85 -223 -70 0 7 12 50 26 97 14 47
27 90 28 95 1 6 8 29 15 53 12 44 12 180 -1 188 -4 3 -51 -48 -105 -113 -54
-65 -108 -130 -121 -144 -12 -14 -28 -33 -35 -42 -6 -9 -148 -84 -315 -167
-228 -113 -309 -149 -325 -144 -12 4 -49 22 -82 41 -67 39 -151 141 -160 196
-4 17 -10 36 -14 42 -12 16 -89 160 -143 267 -27 53 -54 101 -61 106 -9 7 -25
1 -58 -24z m-994 -3310 c8 -20 13 -40 10 -44 -3 -4 -32 -31 -65 -60 -64 -55
-63 -56 -25 35 18 43 54 105 61 105 2 0 11 -16 19 -36z m1341 -507 c64 -152
115 -311 120 -377 4 -50 3 -53 -10 -37 -8 11 -12 26 -9 35 4 10 2 13 -6 8 -8
-5 -11 -30 -9 -73 2 -50 -1 -66 -13 -73 -9 -6 -14 -20 -13 -40 2 -26 -5 -35
-41 -60 -24 -17 -46 -30 -50 -30 -6 0 1 265 11 383 4 53 2 68 -8 65 -9 -3 -13
-39 -15 -127 -3 -164 -10 -292 -18 -299 -3 -3 -30 7 -60 24 -39 20 -53 33 -49
44 3 8 10 40 16 70 5 30 15 72 21 93 5 20 8 39 5 42 -11 11 -37 -23 -42 -55
-3 -19 -10 -59 -16 -87 -11 -50 -13 -52 -33 -41 -26 14 -77 69 -77 84 0 6 25
58 55 116 69 134 152 339 160 398 13 86 20 81 81 -63z m-1682 -48 c59 -18 88
-36 192 -119 l122 -99 90 -163 c171 -311 189 -345 199 -386 18 -70 -1 -47 -32
39 -25 67 -36 85 -65 104 -38 24 -202 120 -265 155 -99 55 -123 72 -154 107
-19 21 -81 89 -140 152 -94 101 -108 120 -122 172 -9 33 -14 59 -12 59 2 0 0
8 -5 18 -5 9 -12 29 -16 45 l-6 27 72 -45 c40 -25 104 -55 142 -66z"/>
<path d="M2479 2066 c7 -8 11 -20 10 -28 -4 -29 1 -161 6 -156 6 6 8 51 6 141
-1 45 -4 57 -17 57 -13 0 -14 -3 -5 -14z"/>
<path d="M2490 1859 c0 -5 5 -7 10 -4 6 3 10 8 10 11 0 2 -4 4 -10 4 -5 0 -10
-5 -10 -11z"/>
<path d="M4060 5839 c-166 -79 -270 -122 -277 -116 -3 4 -1 18 5 32 6 14 10
25 7 25 -7 0 -265 -253 -261 -257 3 -3 232 112 494 248 61 32 112 56 112 53 0
-16 -59 -182 -91 -258 -22 -49 -38 -90 -36 -92 1 -1 29 8 62 21 233 91 255 96
495 110 l85 5 -67 -35 c-38 -20 -68 -37 -68 -40 0 -5 43 13 130 54 l65 31 -50
1 c-184 6 -228 5 -295 -7 -41 -7 -97 -16 -125 -19 -27 -4 -71 -10 -97 -14 -27
-5 -48 -6 -48 -3 0 3 9 35 20 71 20 69 26 97 36 171 3 25 8 48 11 53 9 15 -25
4 -107 -34z"/>
<path d="M5383 5687 c-18 -7 -88 -64 -155 -128 -225 -212 -220 -209 -243 -196
-11 6 -62 14 -113 17 l-93 5 50 52 c61 61 67 89 19 80 -72 -13 -92 -18 -107
-28 -12 -7 -10 -8 9 -5 68 13 100 16 100 12 0 -3 -37 -33 -82 -67 -112 -84
-110 -81 -53 -75 151 17 180 17 199 3 18 -13 13 -16 -55 -32 -146 -36 -268
-74 -513 -164 -137 -49 -250 -91 -251 -93 -2 -2 -64 -102 -139 -222 -117 -191
-148 -251 -117 -232 4 3 72 101 150 219 l142 214 167 53 c92 30 289 90 439
134 l271 81 59 54 c32 30 113 106 181 170 122 115 147 131 189 123 20 -4 21
-9 17 -61 -3 -31 -7 -62 -9 -68 -2 -7 -1 -13 4 -13 14 0 21 39 21 113 0 67 0
67 -27 66 -16 0 -42 -5 -60 -12z"/>
<path d="M4420 5489 c-112 -61 -112 -61 -45 -54 33 3 69 7 80 10 11 2 28 4 37
4 13 1 17 10 16 41 0 22 -3 40 -7 40 -3 -1 -40 -19 -81 -41z"/>
<path d="M5318 5447 c-14 -19 -53 -87 -86 -153 -33 -66 -77 -146 -99 -179 -48
-72 -60 -94 -46 -80 19 18 224 335 234 363 13 31 28 82 26 82 -1 0 -14 -15
-29 -33z"/>
<path d="M5421 5459 c-23 -60 -134 -337 -146 -364 -21 -48 -175 -435 -175
-439 0 -3 46 11 102 30 56 19 105 34 109 34 4 0 -9 -30 -29 -66 -31 -55 -47
-72 -95 -100 -32 -19 -60 -34 -63 -34 -3 0 -21 -11 -41 -25 -42 -28 -48 -23
83 -65 l86 -27 -86 -49 c-48 -26 -83 -51 -79 -55 5 -3 32 -14 62 -24 l55 -18
-30 -23 c-28 -23 -224 -114 -244 -114 -16 0 -11 -12 16 -41 l25 -26 -62 -7
c-33 -4 -87 -10 -118 -13 -81 -7 -88 -15 -41 -42 22 -12 40 -24 40 -25 0 -2
-62 -4 -137 -6 -76 -1 -164 -3 -195 -4 -32 -1 -58 -1 -58 0 0 2 117 73 201
123 22 13 37 27 32 31 -4 4 -42 15 -83 24 -41 10 -81 19 -87 21 -8 3 3 20 27
44 22 22 40 42 40 45 0 3 -21 3 -47 0 l-48 -6 84 54 c77 49 87 59 124 126 l39
74 -38 -4 c-34 -3 -39 0 -42 19 -3 18 24 42 153 138 l155 115 84 128 c46 70
82 129 79 132 -3 3 -7 1 -9 -5 -3 -5 -39 -62 -82 -125 l-77 -115 -160 -108
c-88 -60 -203 -131 -255 -158 -126 -66 -153 -83 -237 -152 -49 -40 -76 -70
-87 -98 -21 -51 -20 -57 3 -33 32 33 163 149 179 158 8 5 52 17 96 27 45 10
107 25 139 33 64 15 64 21 1 -53 -16 -18 -63 -57 -104 -87 -41 -29 -86 -62
-100 -73 l-25 -20 65 5 65 5 -50 -44 -50 -44 98 -23 c114 -25 118 -17 -46
-105 -60 -31 -106 -59 -104 -61 6 -6 60 -11 197 -19 100 -5 131 -3 239 19 69
15 126 28 129 31 2 2 -7 7 -22 11 -41 10 -31 18 37 32 34 6 80 17 101 23 l39
11 -31 25 c-18 13 -32 28 -32 31 0 4 19 13 42 20 35 11 281 153 275 158 -1 1
-28 4 -60 7 -31 3 -64 11 -72 17 -18 15 -14 18 68 64 61 34 98 58 95 62 -4 3
-73 13 -142 19 -26 2 -50 5 -51 7 -2 2 31 33 74 69 73 64 77 70 113 163 22 58
32 96 25 96 -7 0 -32 -6 -57 -13 -43 -13 -80 -12 -80 1 0 5 104 324 116 356 5
14 27 22 91 32 15 2 46 8 68 13 l40 9 -35 1 c-37 2 -144 12 -147 15 -1 1 18
62 42 136 24 74 42 136 40 138 -2 3 -9 -6 -14 -19z"/>
<path d="M1651 5353 c5 -50 -2 -75 -20 -80 -28 -7 -15 -29 16 -27 26 1 27 3
24 45 -2 24 -4 52 -5 62 0 9 -4 17 -9 17 -4 0 -7 -8 -6 -17z"/>
<path d="M5600 5219 c-38 -17 -53 -28 -37 -26 31 5 35 12 -54 -98 -36 -44 -68
-86 -73 -92 -5 -10 19 -13 110 -13 113 0 136 4 84 13 -14 3 -41 8 -60 12 -19
3 -43 7 -52 9 -35 5 -31 18 20 62 29 26 71 73 92 105 21 33 38 59 37 59 -1 0
-31 -14 -67 -31z"/>
<path d="M2798 5092 c-1 -5 -46 -46 -98 -92 -86 -75 -116 -110 -93 -110 5 0
55 47 113 105 58 58 99 105 93 105 -6 0 -13 -4 -15 -8z"/>
<path d="M2093 4958 c-51 -54 -159 -211 -208 -301 -36 -67 -43 -86 -31 -90 11
-4 28 19 61 80 25 47 84 135 129 196 81 109 104 147 88 147 -5 0 -22 -15 -39
-32z"/>
<path d="M3229 4951 c-70 -47 -155 -129 -144 -140 11 -10 198 132 203 155 5
21 -9 17 -59 -15z"/>
<path d="M5759 4954 l33 -27 -23 -13 c-23 -13 -23 -13 11 -10 19 2 46 4 60 5
l25 2 -33 29 c-18 17 -41 30 -51 30 -11 0 -28 3 -38 6 -10 3 -3 -6 16 -22z"/>
<path d="M2276 4934 c-73 -72 -336 -479 -336 -519 0 -29 16 -8 96 123 43 70
117 181 164 247 48 66 92 130 99 143 14 26 0 30 -23 6z"/>
<path d="M2477 4899 c-15 -9 -83 -97 -270 -351 -32 -43 -54 -78 -49 -78 17 0
104 100 200 231 55 74 108 141 117 149 38 32 40 70 2 49z"/>
<path d="M5589 4830 c-25 -14 -12 -53 31 -95 l38 -37 211 1 c138 0 218 4 232
12 18 9 16 3 -12 -36 -32 -44 -72 -86 -159 -164 l-35 -31 44 18 c45 18 45 18
145 -10 114 -32 129 -33 144 -15 8 10 -11 19 -89 42 -54 16 -99 32 -99 36 0 7
34 53 63 84 35 37 65 100 72 149 7 54 11 54 -65 0 -25 -17 -58 -35 -75 -38
-16 -3 -41 -9 -55 -11 -14 -3 -59 -11 -100 -17 l-75 -11 -92 47 c-51 25 -98
46 -104 46 -6 0 -9 9 -6 20 3 11 4 20 4 20 -1 0 -9 -5 -18 -10z"/>
<path d="M1806 4775 c-42 -56 -216 -397 -216 -425 0 -11 5 -20 10 -20 6 0 10
6 10 13 0 33 137 295 205 392 57 83 59 85 41 85 -8 0 -31 -20 -50 -45z"/>
<path d="M2881 4799 c-27 -11 -312 -231 -333 -257 -7 -9 23 9 67 40 44 31 131
91 193 133 61 41 112 80 112 85 0 12 -7 12 -39 -1z"/>
<path d="M2845 4659 c-190 -168 -237 -210 -317 -288 -49 -47 -88 -88 -88 -93
0 -22 30 -2 85 55 33 35 132 124 220 197 161 135 195 166 195 182 0 21 -31 3
-95 -53z"/>
<path d="M2384 4612 c-20 -12 -114 -170 -161 -271 -25 -53 -58 -122 -74 -153
-16 -32 -28 -58 -26 -58 2 0 35 53 72 118 38 64 101 167 142 229 79 121 94
166 47 135z"/>
<path d="M3024 4563 c-72 -41 -353 -224 -364 -238 -27 -33 14 -11 157 84 83
54 159 101 170 105 17 6 84 66 72 66 -2 0 -18 -8 -35 -17z"/>
<path d="M3124 4502 c-238 -171 -364 -265 -361 -269 6 -5 89 45 202 124 50 34
120 83 158 108 37 26 67 50 67 56 0 17 -26 9 -66 -19z"/>
<path d="M6487 4404 c-42 -25 -77 -47 -77 -49 0 -2 21 5 46 16 26 11 49 18 51
16 2 -2 -11 -31 -29 -63 -18 -32 -39 -70 -46 -84 -7 -14 -33 -47 -57 -74 -25
-27 -45 -51 -45 -55 0 -4 48 -5 106 -3 92 3 220 -10 248 -26 4 -2 -7 -11 -25
-19 -103 -45 -128 -59 -172 -95 -26 -22 -46 -43 -43 -45 2 -3 80 10 173 28
127 24 184 40 236 66 43 21 67 29 67 21 0 -14 -45 -141 -56 -161 -4 -6 -40
-50 -80 -97 -72 -86 -95 -108 -239 -235 l-79 -70 93 -5 92 -5 -141 -88 c-77
-48 -208 -124 -290 -168 -129 -69 -168 -99 -130 -99 11 0 202 -111 198 -115
-2 -2 -46 -6 -98 -9 -52 -4 -115 -8 -140 -11 -135 -14 -177 -18 -200 -17 -38
2 -7 -12 78 -36 58 -17 71 -18 61 -6 -14 17 -15 16 36 33 47 17 46 17 195 26
63 4 116 8 118 10 2 1 -42 31 -98 66 -55 35 -99 70 -98 77 2 7 73 45 158 83
85 38 171 82 190 98 19 15 79 62 133 104 84 66 95 77 73 78 -14 1 -29 2 -33 3
-5 1 -34 5 -65 10 -32 4 -58 11 -58 16 0 5 11 17 25 28 30 24 257 237 293 275
23 25 136 286 127 295 -1 2 -27 -12 -56 -31 -68 -42 -93 -52 -204 -78 -167
-39 -185 -37 -99 13 23 12 61 40 84 61 l44 37 -167 0 c-106 0 -167 4 -167 10
0 6 34 78 76 161 41 83 74 153 72 154 -2 2 -38 -16 -81 -41z"/>
<path d="M6086 4421 c-51 -15 -86 -40 -86 -62 0 -7 161 -50 169 -44 4 2 44 6
90 10 105 9 148 23 79 26 -27 1 -51 2 -55 3 -6 2 -98 12 -175 20 -22 3 -16 18
16 37 58 34 52 35 -38 10z"/>
<path d="M1867 4407 c-22 -16 -119 -303 -186 -550 -25 -90 -26 -109 -7 -82 19
27 221 634 213 641 -2 2 -11 -2 -20 -9z"/>
<path d="M2017 4400 c-9 -13 -28 -54 -41 -90 -154 -420 -166 -460 -137 -460 6
0 38 87 72 193 34 105 77 229 96 275 35 86 40 124 10 82z"/>
<path d="M1706 4394 c-9 -8 -16 -27 -16 -42 0 -15 -11 -73 -25 -130 -54 -224
-89 -494 -56 -432 5 8 12 38 16 65 5 28 9 55 11 60 1 6 23 110 49 233 25 122
48 229 51 236 8 21 -12 28 -30 10z"/>
<path d="M2374 4231 c-59 -48 -390 -579 -372 -596 9 -10 29 18 73 104 26 51
111 183 187 293 76 111 137 204 136 209 -2 4 -12 0 -24 -10z"/>
<path d="M2960 4073 c-30 -25 -62 -53 -70 -63 -8 -9 -56 -62 -106 -116 -117
-126 -280 -321 -228 -272 21 20 64 60 94 88 46 43 213 165 415 302 46 32 98
74 75 61 -15 -8 -33 -20 -245 -158 -165 -107 -164 -111 -9 54 78 83 138 151
133 150 -2 0 -29 -21 -59 -46z"/>
<path d="M3225 4038 c-90 -39 -232 -137 -270 -185 -31 -40 -27 -38 67 37 31
25 66 52 77 61 11 8 63 35 115 60 52 24 95 47 96 52 0 11 -11 8 -85 -25z"/>
<path d="M1514 4049 c-4 -7 -7 -117 -6 -243 1 -278 0 -252 11 -240 12 12 23
465 12 483 -7 11 -10 11 -17 0z"/>
<path d="M2659 3947 c-87 -106 -209 -307 -233 -384 -15 -46 4 -21 37 50 31 67
85 151 194 305 46 64 48 84 2 29z"/>
<path d="M1058 3942 c-15 -6 -191 -224 -214 -265 -11 -20 -7 -48 33 -237 13
-63 29 -119 34 -124 11 -12 11 -14 -1 57 -8 53 -7 64 24 145 l33 87 -22 66
-23 66 62 93 c34 51 73 98 87 106 25 14 17 18 -13 6z"/>
<path d="M1984 3879 c-9 -17 -40 -104 -70 -193 -30 -88 -61 -174 -68 -191 -26
-57 -44 -120 -51 -183 -6 -55 -5 -61 9 -56 9 3 17 10 17 15 1 5 2 12 3 17 1 4
6 29 10 56 14 90 152 478 186 526 11 15 17 30 13 34 -14 14 -33 4 -49 -25z"/>
<path d="M2444 3828 c-26 -40 -56 -93 -66 -118 -44 -109 -125 -335 -121 -340
7 -8 20 19 80 165 31 77 83 188 115 246 32 59 58 109 58 113 0 22 -25 -4 -66
-66z"/>
<path d="M2382 3853 c-24 -10 -59 -78 -96 -190 -22 -65 -36 -126 -34 -145 2
-26 13 -4 51 112 27 80 60 164 73 188 14 23 24 42 22 41 -2 0 -9 -3 -16 -6z"/>
<path d="M1013 3670 c0 -60 4 -110 9 -110 8 0 11 39 11 130 0 69 -3 90 -12 90
-5 0 -9 -49 -8 -110z"/>
<path d="M3500 3729 c-75 -19 -557 -131 -582 -135 -90 -16 -104 -26 -296 -216
-129 -127 -191 -195 -195 -215 -4 -15 -36 -138 -71 -273 -36 -134 -64 -245
-63 -246 1 -1 63 -17 137 -34 l134 -32 115 17 c64 9 134 19 156 21 22 3 47 7
55 9 8 3 42 7 75 10 33 4 98 12 144 20 82 12 84 13 140 70 l56 57 -35 -7 c-61
-13 -115 -13 -186 0 -38 7 -102 18 -141 25 l-73 12 -104 101 -105 102 -3 182
-3 181 86 87 85 86 255 63 254 63 70 -34 c86 -40 94 -48 162 -152 l54 -83 -2
-117 c-1 -111 -3 -119 -36 -186 l-35 -70 47 45 46 45 -6 247 c-5 241 -6 248
-33 307 -29 65 -34 67 -102 50z"/>
<path d="M1425 3688 c-9 -22 1 -123 20 -223 9 -44 18 -120 21 -170 6 -106 11
-135 24 -135 9 0 5 123 -6 175 -8 37 -11 61 -19 205 -7 114 -26 184 -40 148z"/>
<path d="M1798 3683 c-9 -10 -19 -46 -22 -80 -4 -35 -9 -80 -12 -100 -10 -72
-11 -174 -3 -179 5 -3 9 8 9 25 0 16 5 42 10 57 6 15 12 66 15 113 4 94 8 119
24 150 19 35 6 44 -21 14z"/>
<path d="M5523 3650 c-95 -28 -335 -192 -314 -213 6 -6 36 10 77 40 73 56 208
133 267 154 41 14 71 40 46 38 -8 0 -42 -9 -76 -19z"/>
<path d="M1649 3624 c-11 -14 -14 -79 -14 -356 0 -219 4 -338 10 -338 6 0 9
95 8 268 -1 174 3 294 11 344 13 83 8 110 -15 82z"/>
<path d="M2128 3574 c-15 -28 -37 -91 -48 -140 -43 -180 -61 -270 -67 -321 -9
-90 12 -59 35 50 29 132 31 144 36 165 12 50 28 119 32 136 7 35 27 91 36 103
5 7 8 22 6 34 -2 19 -8 14 -30 -27z"/>
<path d="M3315 3580 c4 -6 24 -19 45 -30 21 -11 47 -32 59 -47 15 -20 19 -22
15 -8 -10 30 -35 55 -76 76 -42 21 -52 24 -43 9z"/>
<path d="M3216 3560 c7 -6 29 -14 50 -17 62 -7 114 -50 151 -124 30 -61 32
-62 32 -30 2 82 -93 170 -192 179 -41 3 -49 2 -41 -8z"/>
<path d="M1021 3465 c-6 -16 -17 -43 -23 -60 -6 -16 -26 -51 -44 -76 -30 -42
-32 -48 -19 -65 10 -12 13 -14 10 -4 -3 9 9 36 28 60 35 46 72 140 64 163 -3
6 -10 -1 -16 -18z"/>
<path d="M5985 3480 c-17 -6 -14 -9 17 -19 38 -13 116 -5 101 10 -11 11 -94
18 -118 9z"/>
<path d="M3020 3396 c-50 -117 -47 -174 11 -252 23 -30 46 -54 51 -54 11 0 12
-4 -36 78 -36 60 -38 66 -31 120 4 31 16 74 26 94 21 42 24 58 9 58 -6 0 -19
-20 -30 -44z"/>
<path d="M3335 3434 c-5 -1 -23 -5 -38 -8 -26 -6 -34 -17 -51 -72 -10 -32 27
-64 73 -64 43 0 57 12 71 60 8 27 5 35 -18 59 -15 15 -31 27 -37 25z"/>
<path d="M4119 3409 c-15 -19 -38 -58 -53 -87 -15 -29 -43 -78 -62 -108 -19
-30 -34 -60 -32 -66 4 -12 94 120 150 218 35 63 33 91 -3 43z"/>
<path d="M3958 3344 c-5 -4 -8 -16 -8 -27 0 -16 -125 -200 -165 -243 -21 -23
-103 -111 -180 -194 -43 -47 -105 -107 -137 -134 -32 -27 -56 -51 -54 -54 5
-4 141 94 166 120 72 75 156 165 207 224 73 83 185 267 181 296 -2 11 -6 16
-10 12z"/>
<path d="M2137 3313 c-8 -15 -18 -57 -22 -93 -4 -36 -9 -74 -11 -84 -2 -10 0
-25 4 -33 5 -8 17 34 31 108 12 67 20 124 17 126 -2 3 -11 -8 -19 -24z"/>
<path d="M4124 3253 c-92 -120 -92 -124 0 -29 47 49 86 92 86 97 0 27 -35 0
-86 -68z"/>
<path d="M3818 3298 c-9 -7 -35 -44 -59 -83 -51 -84 -68 -106 -182 -253 -49
-63 -86 -116 -84 -119 5 -4 202 239 269 332 81 113 101 158 56 123z"/>
<path d="M1751 3175 c-2 -116 3 -160 19 -150 5 3 7 40 4 83 -3 42 -6 101 -6
130 -2 99 -14 52 -17 -63z"/>
<path d="M5506 3254 c-27 -14 -78 -42 -115 -63 -36 -21 -77 -42 -91 -46 -14
-4 -72 -36 -129 -72 -57 -36 -124 -74 -150 -85 -47 -20 -136 -73 -159 -95 -7
-7 -30 -17 -50 -23 -36 -9 -88 -47 -79 -57 6 -6 181 82 232 117 36 24 150 86
372 201 102 53 211 118 219 130 12 19 -1 18 -50 -7z"/>
<path d="M3482 3257 c-18 -21 -43 -87 -34 -87 4 0 18 21 30 46 23 47 25 66 4
41z"/>
<path d="M2241 3207 c-20 -25 -112 -281 -117 -327 -4 -38 2 -27 42 70 75 187
104 270 95 270 -5 0 -13 -6 -20 -13z"/>
<path d="M3365 3109 c-4 -6 -5 -13 -2 -16 7 -7 27 6 27 18 0 12 -17 12 -25 -2z"/>
<path d="M4111 3103 c-7 -3 -30 -24 -50 -46 -20 -23 -55 -60 -79 -84 -24 -24
-40 -43 -36 -43 20 0 184 153 184 172 0 4 -1 8 -2 7 -2 0 -9 -3 -17 -6z"/>
<path d="M3869 3014 c-166 -176 -217 -221 -339 -298 -194 -123 -196 -136 -6
-33 113 61 331 256 390 348 32 51 10 43 -45 -17z"/>
<path d="M5068 2889 c-134 -62 -198 -97 -201 -110 -4 -14 19 -6 112 40 64 32
151 73 194 91 42 18 82 41 88 51 5 10 8 19 7 19 -2 0 -91 -41 -200 -91z"/>
<path d="M5355 2864 c-99 -35 -225 -79 -280 -96 -97 -30 -136 -50 -118 -61 8
-4 576 181 601 196 18 12 15 27 -5 27 -10 -1 -99 -30 -198 -66z"/>
<path d="M6033 2876 c-10 -7 -108 -59 -218 -115 -110 -57 -184 -99 -165 -94
19 4 82 8 140 8 l105 -1 -52 15 c-29 7 -53 19 -53 25 0 28 115 78 225 99 61
11 113 23 117 26 4 4 -13 16 -37 28 -36 17 -47 19 -62 9z"/>
<path d="M1424 2804 c-55 -37 -87 -62 -275 -209 -200 -157 -274 -220 -301
-257 -19 -28 -19 -28 1 -20 11 4 67 46 123 93 147 122 287 234 406 323 56 43
100 82 97 87 -8 12 -7 13 -51 -17z"/>
<path d="M1427 2703 c-364 -350 -447 -434 -441 -445 4 -6 85 67 183 164 203
202 327 320 347 331 8 4 14 12 14 17 0 23 -27 5 -103 -67z"/>
<path d="M3796 2724 c-43 -30 -117 -77 -165 -105 -117 -69 -260 -162 -260
-171 -1 -5 52 20 117 54 101 53 278 171 377 253 54 44 12 25 -69 -31z"/>
<path d="M5425 2749 c-71 -16 -166 -38 -210 -48 -44 -11 -106 -25 -138 -31
-32 -7 -57 -14 -54 -16 2 -3 24 0 48 5 24 5 60 12 79 15 19 3 89 16 155 30 66
14 136 28 155 31 60 10 109 25 115 35 9 14 -4 12 -150 -21z"/>
<path d="M1554 2728 c-17 -18 -62 -71 -101 -118 -39 -47 -89 -105 -112 -129
-23 -24 -40 -46 -37 -49 9 -8 106 86 156 152 25 32 69 82 98 110 28 28 52 54
52 58 0 18 -28 6 -56 -24z"/>
<path d="M1155 2701 c-11 -11 -94 -73 -184 -139 -116 -84 -183 -126 -228 -142
-35 -12 -62 -24 -60 -27 3 -2 35 4 72 13 47 12 92 33 149 72 286 193 312 214
300 233 -9 14 -28 10 -49 -10z"/>
<path d="M1664 2648 c-25 -28 -153 -183 -254 -311 l-25 -32 30 19 c34 22 44
33 177 196 95 116 126 160 110 160 -4 0 -22 -15 -38 -32z"/>
<path d="M3135 2600 c-93 -44 -177 -84 -185 -88 -8 -5 -82 -26 -165 -47 -132
-34 -173 -50 -160 -63 1 -2 74 15 161 37 127 32 193 55 324 116 91 42 175 87
188 100 13 14 19 25 15 25 -4 0 -84 -36 -178 -80z"/>
<path d="M5893 2659 c-4 -4 -78 -40 -163 -80 -85 -39 -157 -73 -159 -75 -10
-9 9 -13 114 -28 61 -9 119 -18 131 -20 11 -2 31 4 44 14 33 25 20 29 -110 32
l-105 3 154 76 c128 63 150 77 128 81 -14 3 -30 1 -34 -3z"/>
<path d="M1748 2596 c-7 -7 -47 -51 -88 -97 -41 -46 -136 -146 -210 -221 -131
-135 -159 -168 -143 -168 5 0 96 89 204 198 172 173 237 244 263 290 10 16 -9
15 -26 -2z"/>
<path d="M2925 2560 c-127 -39 -236 -70 -242 -70 -4 0 -3 -4 3 -10 12 -12 306
72 312 89 5 14 0 13 -73 -9z"/>
<path d="M3437 2556 c-56 -34 -55 -38 2 -14 28 12 51 26 51 30 0 13 -12 9 -53
-16z"/>
<path d="M3254 2550 c-14 -14 -265 -98 -341 -115 -30 -6 -56 -25 -35 -25 26 0
253 64 306 86 61 26 94 49 85 59 -3 2 -10 0 -15 -5z"/>
<path d="M3345 2515 c-5 -2 -35 -11 -66 -20 -31 -8 -80 -33 -109 -55 -30 -22
-51 -40 -48 -40 3 0 57 24 119 54 63 29 121 56 129 59 13 5 13 5 0 5 -8 0 -19
-1 -25 -3z"/>
<path d="M4700 2491 c-52 -15 -113 -37 -135 -48 -22 -11 -96 -35 -164 -54 -84
-22 -133 -41 -150 -57 -22 -20 -23 -23 -6 -17 11 4 36 11 55 17 120 32 477
161 495 179 11 11 18 13 -95 -20z"/>
<path d="M1860 2427 c-8 -7 -55 -57 -105 -112 -49 -55 -94 -105 -100 -111 -5
-6 -39 -44 -75 -84 -36 -41 -74 -84 -85 -96 -11 -12 -35 -39 -54 -60 -19 -22
-48 -55 -65 -74 -53 -59 5 -9 104 90 132 132 371 387 392 419 27 40 21 55 -12
28z"/>
<path d="M5695 2380 c-297 -142 -401 -193 -413 -203 -14 -11 32 -41 186 -121
39 -21 70 -42 67 -45 -2 -4 -67 -23 -144 -42 -78 -19 -140 -38 -138 -42 1 -5
61 -37 132 -73 l130 -64 -156 4 c-145 4 -163 3 -266 -24 -114 -29 -157 -46
-149 -58 3 -5 68 -32 145 -62 78 -30 141 -58 141 -61 0 -14 -250 -104 -390
-139 -84 -22 -155 -42 -158 -45 -3 -3 27 -39 68 -80 78 -79 78 -81 -11 -65
-30 5 -67 12 -84 15 -150 26 -165 28 -195 15 -40 -17 -29 -27 39 -35 30 -4 63
-10 75 -15 20 -8 20 -8 -4 -13 -14 -3 -49 -11 -77 -17 -29 -7 -53 -15 -53 -18
0 -4 13 -16 29 -27 16 -10 27 -23 25 -27 -3 -4 1 -8 10 -8 8 0 23 -3 33 -7 12
-5 10 1 -10 20 -15 16 -27 31 -27 35 0 5 21 8 48 9 107 1 132 3 132 11 0 5
-12 14 -26 20 -45 21 -17 29 53 16 37 -7 82 -14 98 -17 17 -3 48 -8 70 -11
l40 -7 -35 28 c-115 93 -134 110 -147 129 -13 20 -11 21 134 42 123 17 164 28
243 62 52 23 108 47 124 53 16 7 49 21 73 32 l45 20 -73 29 c-163 64 -240 99
-232 107 4 4 26 12 48 18 22 5 66 17 98 26 68 19 115 20 285 11 67 -4 122 -6
122 -4 0 2 -47 39 -105 83 -100 76 -130 115 -87 115 19 0 157 29 185 39 13 4
3 13 -40 36 -122 63 -232 129 -227 137 6 10 34 22 231 103 135 56 170 75 214
116 29 27 51 51 48 53 -2 2 -58 -22 -124 -54z"/>
<path d="M1385 2400 c-29 -12 -248 -240 -263 -274 -7 -16 -11 -30 -9 -32 2 -3
70 64 150 148 80 84 149 156 153 161 9 9 -5 8 -31 -3z"/>
<path d="M1922 2382 c-11 -9 -48 -55 -82 -101 -35 -46 -87 -109 -116 -140 -29
-31 -53 -63 -53 -71 -1 -21 195 182 247 257 41 60 44 90 4 55z"/>
<path d="M1174 2308 c-95 -104 -135 -158 -117 -158 11 0 36 22 58 52 22 28 44
56 50 62 23 24 56 76 48 76 -5 0 -22 -15 -39 -32z"/>
<path d="M5215 2304 c-73 -15 -445 -109 -438 -111 20 -7 437 86 451 101 9 9
14 15 12 15 -3 -1 -14 -3 -25 -5z"/>
<path d="M4505 2272 c-16 -2 -93 -19 -170 -39 -77 -19 -151 -37 -165 -39 -14
-3 -45 -11 -70 -19 -54 -18 -38 -16 175 25 88 17 191 37 229 43 38 7 71 18 74
25 2 7 -5 11 -20 9 -13 -1 -36 -3 -53 -5z"/>
<path d="M2111 2175 c-23 -14 -61 -44 -84 -68 -23 -23 -84 -76 -135 -116 -50
-41 -90 -76 -88 -78 10 -10 79 37 151 102 43 39 108 90 146 115 43 29 65 50
61 57 -6 9 -20 5 -51 -12z"/>
<path d="M156 2181 c-6 -9 0 -90 10 -130 3 -14 22 -54 43 -90 77 -132 123
-223 140 -274 18 -55 21 -122 5 -150 -9 -15 -14 -11 -38 28 -30 47 -53 71 -61
63 -5 -5 84 -128 92 -128 11 0 34 35 58 87 l25 53 -121 200 c-124 207 -129
218 -132 338 0 14 -13 16 -21 3z"/>
<path d="M2680 2185 c0 -2 44 -30 98 -61 53 -32 131 -81 174 -111 42 -29 79
-53 83 -53 4 0 -17 23 -47 50 -91 87 -308 210 -308 175z"/>
<path d="M4688 2173 c7 -3 16 -2 19 1 4 3 -2 6 -13 5 -11 0 -14 -3 -6 -6z"/>
<path d="M420 2061 c0 -10 74 -111 204 -277 37 -48 67 -73 139 -115 101 -59
118 -73 199 -171 104 -123 101 -136 -22 -117 -101 16 -130 36 -172 126 -28 58
-48 86 -48 66 1 -30 45 -132 68 -156 35 -37 51 -43 146 -52 43 -4 87 -8 98
-10 11 -2 22 3 25 11 11 29 -44 109 -182 261 -11 12 -59 44 -107 70 -77 43
-96 59 -168 146 -44 54 -98 125 -120 157 -41 60 -60 79 -60 61z"/>
<path d="M3035 1989 c47 -51 103 -94 111 -86 7 7 -99 108 -130 124 -28 14 -26
10 19 -38z"/>
<path d="M5009 1966 c-4 -4 -55 -10 -179 -22 -30 -2 -68 -7 -85 -9 -16 -2 -64
-7 -106 -10 -41 -3 -84 -8 -95 -10 -10 -2 -34 -4 -51 -4 -23 -1 -33 -6 -33
-17 0 -16 10 -16 150 1 14 2 59 6 100 10 41 3 86 8 100 10 14 2 54 7 90 10 60
6 165 42 129 44 -9 1 -18 -1 -20 -3z"/>
<path d="M4767 1854 c-1 -1 -36 -4 -77 -7 -94 -8 -199 -18 -225 -22 -11 -2
-37 -4 -57 -4 -21 -1 -38 -6 -38 -12 0 -10 29 -10 210 6 30 3 84 7 120 10 36
3 88 12 115 20 l50 14 -48 -1 c-26 -1 -48 -3 -50 -4z"/>
<path d="M3635 1789 c-25 -6 -22 -7 20 -9 143 -7 325 -4 322 5 -2 11 -293 14
-342 4z"/>
<path d="M3571 1665 c9 -8 173 -13 194 -5 11 4 -29 8 -89 9 -60 1 -107 -1
-105 -4z"/>
<path d="M3753 1638 c-2 -5 6 -9 19 -9 148 -8 222 -3 212 12 -7 11 -224 8
-231 -3z"/>
<path d="M4291 1609 c-76 -10 -91 -15 -91 -29 0 -6 3 -9 8 -7 4 3 40 8 80 11
65 6 122 20 122 29 0 6 -57 4 -119 -4z"/>
<path d="M4575 1579 c-72 -12 -122 -18 -185 -25 -30 -3 -61 -7 -68 -9 -7 -3
-40 -7 -75 -11 -34 -4 -69 -8 -77 -10 -8 -1 -22 -3 -30 -3 -13 -1 -13 -3 0
-10 8 -6 17 -8 20 -6 3 2 44 9 90 15 47 6 96 13 110 15 14 2 52 6 85 10 32 4
68 9 80 11 11 3 40 7 65 11 48 6 56 9 43 15 -4 3 -30 1 -58 -3z"/>
<path d="M4730 1544 c-52 -7 -120 -15 -150 -19 -30 -3 -64 -8 -75 -10 -11 -2
-30 -4 -43 -4 -13 -1 -20 -5 -17 -11 4 -6 9 -9 13 -6 4 2 39 7 77 10 71 7 114
11 195 20 25 3 78 8 118 12 40 4 75 11 78 16 7 11 -69 8 -196 -8z"/>
<path d="M3510 1468 c29 -31 400 -188 442 -188 21 1 21 2 5 11 -9 6 -108 46
-220 91 -235 93 -234 93 -227 86z"/>
<path d="M2777 1404 c-15 -15 169 -144 250 -175 45 -17 9 15 -50 45 -29 15
-81 51 -117 81 -65 56 -72 60 -83 49z"/>
<path d="M3340 1386 c14 -13 70 -41 125 -61 129 -47 125 -46 125 -37 0 10
-138 74 -235 108 l-40 15 25 -25z"/>
<path d="M2674 1353 c58 -61 204 -166 187 -135 -10 20 -149 131 -208 168 -20
13 -15 4 21 -33z"/>
<path d="M3145 1382 c9 -9 122 -73 240 -137 22 -12 63 -29 90 -38 l50 -17 -25
20 c-33 26 -308 169 -340 176 -17 5 -22 3 -15 -4z"/>
<path d="M2745 1364 c6 -5 23 -20 40 -34 29 -24 29 -24 10 -2 -11 13 -29 28
-40 34 -11 6 -15 6 -10 2z"/>
<path d="M2275 1226 c-26 -74 -31 -83 -40 -66 -10 19 -12 19 -45 -15 -33 -34
-36 -35 -49 -18 -13 17 -13 17 -7 0 3 -11 9 -30 12 -43 8 -30 17 -30 37 -1 15
21 16 21 17 2 1 -18 2 -19 13 -3 32 41 111 128 117 128 4 0 69 -81 143 -181
l136 -180 15 53 c8 29 20 81 27 116 6 34 15 64 18 67 7 4 32 -8 258 -125 l132
-68 -20 51 c-36 89 -39 98 -39 108 0 23 28 3 112 -78 190 -185 176 -178 170
-95 -4 74 -12 97 -12 38 0 -21 -4 -36 -9 -34 -5 2 -80 63 -165 136 -86 73
-156 129 -156 124 0 -4 14 -46 30 -91 17 -46 29 -88 28 -92 -2 -5 -71 34 -153
87 -83 53 -175 112 -205 131 -33 22 -48 28 -37 15 10 -11 19 -28 19 -38 1 -20
-13 -198 -16 -201 -1 -2 -239 280 -283 336 l-19 23 -29 -86z"/>
<path d="M2590 1301 c0 -8 51 -53 125 -110 11 -9 -7 14 -40 50 -55 62 -85 82
-85 60z"/>
<path d="M2835 1290 c10 -11 20 -20 23 -20 3 0 -3 9 -13 20 -10 11 -20 20 -23
20 -3 0 3 -9 13 -20z"/>
<path d="M2091 1250 c0 -8 4 -24 9 -35 5 -13 9 -14 9 -5 0 8 -4 24 -9 35 -5
13 -9 14 -9 5z"/>
<path d="M3987 1203 c15 -25 192 -170 252 -207 6 -4 1 15 -10 41 -45 101 -68
166 -64 174 5 8 -33 24 -40 17 -2 -2 17 -44 42 -93 25 -50 40 -85 32 -79 -8 6
-43 33 -79 60 -36 27 -67 51 -70 55 -3 3 -22 18 -44 34 l-38 29 19 -31z"/>
<path d="M3895 1166 c-33 -6 -64 -13 -70 -14 -5 -1 -35 -4 -65 -8 -55 -6 -57
-7 -97 -66 l-41 -61 62 -58 c33 -33 65 -59 69 -59 5 0 5 -4 2 -10 -3 -5 -1
-10 4 -10 16 0 14 8 -19 85 -31 74 -37 105 -19 105 5 0 34 11 62 24 29 13 77
34 107 46 45 19 88 43 70 39 -3 -1 -32 -6 -65 -13z"/>
<path d="M3260 1111 c0 -12 12 -23 33 -32 17 -7 108 -46 201 -86 93 -41 170
-72 172 -71 1 2 -43 27 -99 57 -56 29 -143 76 -194 102 -50 27 -96 49 -102 49
-6 0 -11 -8 -11 -19z"/>
<path d="M1090 1017 c47 -25 91 -42 98 -40 7 3 -24 21 -70 40 -119 50 -123 49
-28 0z"/>
<path d="M1270 1025 c-14 -8 -20 -14 -15 -14 6 0 21 6 35 14 14 8 21 14 15 14
-5 0 -21 -6 -35 -14z"/>
<path d="M3261 1024 c0 -11 3 -14 6 -6 3 7 2 16 -1 19 -3 4 -6 -2 -5 -13z"/>
</g>
</svg>
