<?xml version="1.0" encoding="UTF-8" standalone="no"?>
<svg xmlns="http://www.w3.org/2000/svg" version="1.1" viewBox="0 0 931 718" height="718pt" width="931pt">
  <path d="m 160.54,692.94 c 0.05,-0.01 0.16,-0.04 0.22,-0.05 l -0.11,0.06 z m 120.43,-28.77 c -1.89,0.99 -2.59,-2.02 -0.92,-2.69 0.23,0.67 0.69,2.02 0.92,2.69 z m -2.9,-7.41 c 1.72,0.77 1.71,2.93 1.84,4.55 -2.06,-0.54 -2.62,-2.77 -1.84,-4.55 z m 65.65,-6.69 c 1.3,-0.09 2.6,-0.05 3.9,0.11 3.71,4.01 7.2,8.23 10.9,12.26 3.21,3.12 7.01,5.54 10.32,8.56 -7.12,-4.3 -13.53,-9.61 -19.71,-15.13 -1.88,-1.85 -4.6,-3.13 -5.41,-5.8 z m 24.98,-11.96 c 1.11,-0.42 2.27,-2.7 3.52,-1.45 5.27,4.44 10.48,8.95 15.68,13.48 3.78,3.29 9.16,3.81 12.98,7.05 2.14,1.75 4.18,3.65 6.12,5.63 -6.33,-3.3 -12.92,-6.1 -19.16,-9.56 -6.45,-4.95 -12.92,-9.91 -19.14,-15.15 z M 474.41,602.9 c 0.58,-1.02 1.44,-1.48 2.57,-1.37 8.64,0.06 17.26,1.26 25.91,0.79 3.06,-0.15 6.13,-0.13 9.18,0.16 -6.05,0.19 -12.03,1.23 -18.07,1.46 -6.53,-0.29 -13.07,-0.53 -19.59,-1.04 z m -77.68,-51.13 c 5.47,3.07 11.02,6.33 15.06,11.24 2.77,3.11 5.73,6.07 8.36,9.31 -3.51,-1.91 -6.94,-4 -10.69,-5.41 -0.62,-4.02 -4.58,-6.18 -7.1,-9 -2.02,-1.91 -3.94,-3.93 -5.63,-6.14 z M 56.7,552.42 c -1.04,-0.99 -1.02,-3.68 0.88,-3.3 4.62,6.47 8.57,13.46 13.82,19.47 6.18,7.49 12.38,14.97 18.49,22.51 1.01,1.33 2.33,2.39 3.85,3.11 5.77,2.93 11.47,5.99 17.23,8.92 1.49,0.73 2.9,1.67 3.97,2.96 6.22,7.12 12.44,14.24 18.75,21.28 3.67,3.84 5.29,9.02 7.79,13.61 -0.59,0.98 -1.18,1.97 -1.77,2.97 -8.89,-0.75 -17.76,-1.82 -26.64,-2.71 -2.77,0.01 -4.41,-2.47 -6.37,-4.03 -2.2,-2.23 -5.36,-3.9 -6.06,-7.2 -1.83,-5.83 -4,-11.55 -5.65,-17.43 6.74,4.9 6.31,14.67 12.23,20.25 2.63,2.37 4.87,5.93 8.75,6.16 6.02,0.87 12.03,1.79 18.04,2.7 1.79,0.57 3.23,-0.68 4.68,-1.49 -1.51,-3.3 -3,-6.68 -5.43,-9.42 -5.05,-5.95 -10.16,-11.85 -15.16,-17.83 -1.82,-2.28 -4.28,-3.88 -6.79,-5.28 -6.38,-3.6 -12.59,-7.5 -18.96,-11.1 -1.65,-0.94 -3.22,-2.04 -4.42,-3.51 -7.04,-8.73 -13.38,-18.02 -20.73,-26.49 -3.65,-4.59 -6.92,-9.49 -10.5,-14.15 z m 506.79,58.31 c 8.22,-0.61 16.43,-2.33 24.71,-1.51 -3.55,1.59 -7.19,3.16 -11.13,3.29 -6.58,0.48 -13.11,1.81 -19.72,1.76 1.32,-2.15 3.61,-3.51 6.14,-3.54 z m -405.65,-95.9 c 1.01,-1.57 2.94,-1.81 4.57,-2.31 -5.81,9.31 -13.48,17.31 -20.06,26.08 -0.93,-0.15 -2.8,-0.46 -3.73,-0.62 6.29,-7.81 12.79,-15.45 19.22,-23.15 z m 199.2,-21.84 c 14.15,-4.17 28.31,-8.34 42.47,-12.49 -0.17,0.78 -0.51,2.35 -0.68,3.14 -11.35,3.1 -22.59,6.58 -33.91,9.77 -2.3,0.62 -4.56,1.35 -6.72,2.33 -0.39,-0.92 -0.78,-1.84 -1.16,-2.75 z M 219.09,474.03 c 2.17,-3.21 5.45,-5.32 8.75,-7.2 -1.27,2.64 -2.49,5.35 -4.4,7.6 -9.75,11.88 -19.51,23.75 -29.26,35.64 -2.93,3.19 -6.73,5.44 -10.31,7.83 11.63,-14.7 23.91,-28.91 35.22,-43.87 z m 128.96,161.92 c 8.95,5.91 17.09,13 25.83,19.22 3.48,2.3 6.43,5.36 8.32,9.11 -6.27,-3.8 -12.39,-7.91 -18.33,-12.2 -5.3,-5.34 -10.91,-10.42 -15.82,-16.13 z M 207.15,460.09 c 1.54,-2.15 4.16,-2.97 6.44,-4.05 0.12,1.2 0.23,2.4 0.34,3.62 -4.14,3.62 -8.87,6.69 -12.16,11.17 -4.53,5.78 -8.95,11.65 -13.59,17.35 -4.35,4.25 -9.2,7.98 -13.57,12.21 l -1.62,-0.4 0.42,1.67 c -2.72,2.58 -5.55,5.06 -8.52,7.36 1.99,-2.43 4.61,-4.2 6.87,-6.34 1.47,-0.83 0.57,-2.87 1.82,-3.84 4.38,-4.68 9.05,-9.09 13.29,-13.9 6.76,-8.29 13.56,-16.54 20.28,-24.85 z M 463.9,627.12 c 21.72,8.4 43.34,17.11 64.91,25.91 -2.33,0.34 -4.8,1.39 -7.06,0.27 -13.25,-5.41 -26.57,-10.67 -39.79,-16.15 -6.09,-3.21 -12.21,-6.4 -18.06,-10.03 z m 15,-40.85 c 9.66,-1.09 19.43,-0.9 29.13,-1.49 7.99,-0.61 15.96,0.39 23.94,0.7 -1.23,0.85 -2.18,2.5 -3.81,2.47 -13.72,-0.04 -27.44,-0.27 -41.16,-0.39 -2.76,0.05 -5.48,-0.5 -8.1,-1.29 z m 102.29,-3.86 c 23.96,-1.87 47.83,-5.03 71.85,-6.1 -6,1.28 -12.03,2.39 -18.03,3.7 -5.88,1.41 -11.95,1.39 -17.95,1.91 -11.95,0.91 -23.92,1.6 -35.87,2.59 0,-0.52 0,-1.57 0,-2.1 z m 46.55,-48.73 c 23.23,-5.43 46.06,-12.63 69.61,-16.62 -1.76,1.85 -3.46,4.19 -6.21,4.45 -21.09,4.2 -42.14,8.59 -63.23,12.75 -1.56,0.25 -2.98,0.82 -4.27,1.72 -0.52,-0.35 -1.02,-0.71 -1.49,-1.09 1.86,-0.35 3.74,-0.77 5.59,-1.21 z m 58.33,-67.12 c 19.06,-4.22 37.94,-9.31 57.23,-12.45 -1.91,1.54 -3.75,3.43 -6.29,3.81 -17.29,3.44 -34.6,6.78 -51.87,10.36 -8.16,1.38 -16.2,3.53 -24.43,4.47 8.31,-2.62 16.91,-4.09 25.36,-6.19 z M 452.6,440.6 l 0.19,-0.14 c -0.08,0.08 -0.25,0.25 -0.33,0.34 z m 92.91,-29.15 c 1.5,-0.13 3.01,-0.24 4.53,-0.33 -5.33,6.26 -10.66,12.71 -17.34,17.59 -3.19,2.41 -6.21,5.06 -9.55,7.25 2.59,-3.94 6.44,-6.8 9.62,-10.22 4.48,-4.55 8.51,-9.52 12.74,-14.29 z m 8.24,-26.71 c 1.52,-1.91 4.56,-5.58 6.83,-2.85 -6.23,7.93 -13.26,15.16 -20.24,22.41 -2.37,2.32 -4.6,4.78 -6.42,7.56 0.54,-1.14 1.07,-2.27 1.65,-3.38 5.96,-7.99 12.18,-15.78 18.18,-23.74 z M 450.89,487.91 c 4.6,-2.25 8.67,-5.43 13.14,-7.93 -0.04,0.67 -0.12,2 -0.16,2.67 -3.62,1.51 -7.23,3.06 -10.67,4.95 -0.16,0.08 -0.48,0.25 -0.64,0.33 -10.69,4.26 -21.09,9.24 -31.39,14.37 -2.61,1.26 -5.17,2.67 -8,3.39 3.31,-2.58 6.75,-4.97 10.19,-7.37 2.62,-1.8 5.07,-4.02 8.2,-4.91 6.42,-1.91 12.98,-3.38 19.33,-5.5 z m 93.73,-113.56 c 2.3,-2.86 4.94,-5.44 7.3,-8.26 0.12,0.73 0.34,2.17 0.46,2.89 -7.14,12.77 -15.29,24.96 -23.21,37.25 -0.34,0.13 -1.03,0.4 -1.37,0.54 0.23,-4.42 3.43,-7.71 5.47,-11.39 4.46,-6.64 7.92,-13.84 11.35,-21.03 z m 247.94,-13.19 c 6.08,-1.35 12.35,0.04 18.52,-0.19 0.71,0.87 1.43,1.74 2.16,2.61 -3.74,0.33 -7.43,1.21 -11.18,1.27 -3.29,-0.86 -6.58,-1.95 -9.5,-3.69 z m -655.93,-0.81 c 0.34,-0.1 1.03,-0.31 1.37,-0.41 1.04,3.72 -1.41,7.34 -2.1,10.96 -1.43,7.21 -7.07,12.35 -11.6,17.75 0.67,1.15 1.34,2.28 1.93,3.49 -0.08,0.37 -0.23,1.11 -0.3,1.48 -1.06,-1.88 -1.86,-3.88 -2.54,-5.91 -0.25,-0.55 -0.74,-1.67 -0.98,-2.22 0.21,0.27 0.62,0.81 0.83,1.09 1.93,-3.43 4.74,-6.21 6.96,-9.43 3.1,-5.19 4.07,-11.29 6.43,-16.8 z m 290.23,-10.7 c 5.21,-2.18 10.56,0.18 15.5,1.92 3.54,2.09 7,4.36 10.26,6.86 2.31,2.82 4.02,6.12 5.63,9.38 0.85,3.34 0.51,6.86 0.51,10.28 -2.23,-4.74 -4.2,-9.59 -6.47,-14.3 -1.01,-2.56 -3.57,-3.86 -5.59,-5.5 -3.03,-2.12 -5.66,-5.44 -9.72,-5.27 -3.41,-0.85 -8.28,0.47 -10.12,-3.37 z m 20.61,64.27 c -1.81,-3.25 1.72,-5.42 4.68,-4.86 -1.3,1.85 -2.85,3.53 -4.68,4.86 z m 10.77,-10.01 c 0.02,-5.59 2.26,-11.55 6.79,-15.01 0.89,2.32 -0.81,4.28 -1.86,6.2 -1.75,2.88 -3.33,5.85 -4.93,8.81 z m 250.32,0.66 c 10.18,-5.61 19.87,-12.24 30.61,-16.75 0.34,0.07 1.01,0.22 1.34,0.29 -1.96,2.15 -3.86,4.45 -6.47,5.84 -7.03,4.03 -14.08,8.01 -21.07,12.11 -2.8,1.77 -6.18,2.24 -8.99,3.99 -2.9,1.69 -5.56,3.78 -8.58,5.26 -9.21,3.68 -17.59,9.09 -26.43,13.55 -5.7,2.73 -10.29,7.25 -15.99,9.97 -8.12,4.02 -16.11,8.29 -24.26,12.23 0.29,-2.45 1.93,-4.2 3.95,-5.42 4.14,-3.49 9.77,-3.75 14.54,-5.98 0.14,-0.45 0.43,-1.37 0.58,-1.83 5.62,-3.39 11.2,-6.84 16.84,-10.21 2.44,-1.5 5.53,-1.35 7.93,-2.96 4.89,-2.74 9.33,-6.21 14.39,-8.64 4.89,-2.69 9.29,-6.18 14.08,-9.04 2.32,-1.32 5.18,-1.11 7.53,-2.41 z M 439.98,346.25 c 4.82,1.02 8.84,4.24 13.06,6.64 2.49,3 3.93,6.78 5.9,10.15 -3.74,-3.33 -5.62,-8.6 -10.5,-10.62 -2.78,-2.03 -6.95,-2.84 -8.46,-6.17 z m 150.87,277.16 c 19.69,-2.31 39.36,-4.76 59.03,-7.17 1.91,-0.28 3.83,0.02 5.74,0.26 -0.28,0.68 -0.56,1.37 -0.83,2.06 -20.26,2.03 -40.51,4.15 -60.76,6.25 -1.31,0.25 -2.81,0.1 -3.18,-1.4 z M 237.51,335.47 c 1.51,-1.48 3.01,-2.97 4.5,-4.45 0.66,0.99 1.33,2 1.99,3 -1.15,1.15 -2.31,2.29 -3.46,3.44 -0.11,3.08 -0.79,6.08 -1.92,8.95 -0.64,8.45 1.26,17.47 -2.39,25.43 -3.75,16.62 0.76,33.62 -0.14,50.39 -2.17,-0.09 -2.89,-2.37 -3.09,-4.16 -0.99,-8.69 0.07,-17.42 0.22,-26.12 0.63,-8.64 -0.03,-17.31 0.53,-25.94 1.32,-10.17 2.61,-20.35 3.76,-30.54 z M 134.45,321.43 c 0.92,-1.34 2.18,0.6 2.22,1.57 2.44,8.99 0.29,18.36 -0.28,27.45 -0.44,0.23 -1.31,0.7 -1.75,0.93 -0.61,-5.79 0.75,-11.54 0.67,-17.32 -0.95,-4.13 -1.81,-8.41 -0.86,-12.63 z M 873.47,294.7 c 0.03,-0.05 0.1,-0.17 0.14,-0.23 l -0.11,0.24 z M 130.9,681.24 c 4.67,2.12 9.41,4.09 14.13,6.11 5.2,1.74 9.89,5.37 15.51,5.59 l 0.11,0.01 c -1.46,0.92 -3.14,1.37 -4.84,1.58 -8.01,-4.97 -17.04,-8.08 -24.91,-13.29 z m 417.3,-59.21 c 22.25,-2.86 44.53,-5.5 66.74,-8.71 0.92,0.08 3.61,-0.83 2.65,1.04 -19.09,3.43 -38.39,5.53 -57.61,8.05 -3.82,-0.16 -8.81,2.87 -11.78,-0.38 z M 196.86,457.76 c 1.92,-2.11 4.62,-3.07 7.31,-3.74 -0.69,2.77 -3.69,3.74 -5.46,5.68 -11.48,10.88 -23.03,21.67 -34.46,32.6 -10.42,10.53 -20.84,21.06 -31.17,31.67 -0.81,-0.01 -2.44,-0.04 -3.25,-0.06 0.7,-1.27 1.35,-2.62 2.41,-3.64 21.57,-20.81 43.01,-41.74 64.62,-62.51 z m 207.62,-91.87 c 0.91,0.38 1.83,0.76 2.75,1.14 -0.06,0.4 -0.18,1.21 -0.24,1.61 -1.88,3.91 -3.95,7.76 -5.33,11.9 -0.77,4.11 -1.07,8.31 -1.5,12.48 -0.29,1.31 0.43,2.52 1.08,3.6 3.19,5.31 6.6,10.49 9.59,15.92 -0.56,0.01 -1.69,0.03 -2.25,0.04 -2.86,-3.88 -5.75,-7.74 -8.77,-11.5 -1.12,-1.48 -2.6,-2.98 -2.42,-4.99 -0.02,-4.05 -0.67,-8.15 -0.08,-12.16 2.12,-6.11 4.51,-12.14 7.17,-18.04 z m -47.1,-73.86 c 1.4,-0.75 2.93,-1.23 4.43,-1.74 -0.34,0.18 -1.02,0.53 -1.36,0.7 0.74,2.12 -1.39,3.46 -2.32,5.04 -5.72,8.03 -11.23,16.21 -16.85,24.31 -4.04,6.01 -8.71,11.66 -11.54,18.4 -3.13,6 -5.37,12.51 -9.2,18.11 0.39,-4.06 2.52,-7.61 4.04,-11.31 2.59,-5.66 4.48,-11.72 8.22,-16.77 5.69,-8.07 10.77,-16.58 16.82,-24.39 2.25,-2.67 4.73,-5.17 6.58,-8.15 1.42,-1.3 2.8,-2.64 4.16,-4.01 z m 72.28,-5.32 c 3.56,-1.54 6.98,-3.64 10.92,-4.07 0.14,1.21 -0.35,1.93 -1.48,2.17 -8.77,3.69 -17.03,8.46 -25.55,12.67 -8.55,6.04 -16.29,13.19 -24.72,19.42 0.56,-0.89 1.15,-1.75 1.79,-2.58 2.64,-3.24 4.96,-6.89 8.54,-9.2 5.79,-3.92 11.53,-7.91 17.27,-11.89 4.06,-2.82 8.78,-4.43 13.23,-6.52 z m 5.35,82.29 c 3.23,-0.72 6.45,-1.47 9.72,-1.91 2.24,2.61 6.61,4.04 6.62,7.99 0.15,3.38 -1.53,6.53 -2.81,9.57 -4.28,2.68 -9.8,2.61 -14.08,-0.01 -1.31,-1.64 -2.71,-3.38 -3.26,-5.42 0.93,-3.52 2.56,-6.81 3.81,-10.22 z m -34.75,-92.06 c 0.58,0.04 1.16,0.1 1.76,0.16 -0.33,0.09 -1,0.26 -1.33,0.35 -11.07,13.71 -24.15,25.67 -35.85,38.83 13.83,-8.55 27.29,-17.69 41.01,-26.42 7.35,-4.63 14.37,-9.85 22.13,-13.81 -22.73,15.97 -45.68,31.63 -68.39,47.62 -7.2,6.53 -14.01,13.5 -20.91,20.35 -1,1 -2,1.99 -2.99,2.99 0.01,-0.25 0.02,-0.76 0.03,-1.01 3.27,-4.43 7.07,-8.43 10.59,-12.66 6.98,-8.03 13.6,-16.39 21,-24.05 5.63,-6.13 11.38,-12.14 16.95,-18.32 4.34,-5.78 11.17,-8.8 16,-14.03 z m -6.08,-54.75 c 4.23,-2.52 7.95,-6.26 12.96,-7.15 -2.27,2.8 -4.84,5.36 -7.56,7.73 -2.27,1.06 -4.91,1.25 -6.99,2.72 -11.29,7.8 -22.85,15.18 -34.23,22.84 -1.69,1.21 -3.61,2 -5.56,2.69 0.65,-1.34 0.96,-3 2.29,-3.87 12.86,-8.58 26.02,-16.7 39.09,-24.96 z M 254.73,507.51 c 1.23,-1.75 3.62,-1.81 5.45,-2.57 -0.21,1.41 -0.21,2.95 -1.26,4.06 -5.07,6.62 -9.72,13.56 -14.99,20.02 -6.97,6.86 -13.92,13.74 -21.03,20.45 -0.61,-0.08 -1.82,-0.25 -2.43,-0.33 5.69,-6.51 11.78,-12.66 17.46,-19.17 5.73,-7.39 11.17,-15 16.8,-22.46 z m 256.66,-81.13 c 3.45,-4.2 7.16,-8.24 11.53,-11.51 -0.66,2.5 -0.86,5.36 -2.86,7.24 -5.85,6.18 -11.4,12.66 -17.44,18.66 -7.4,6.51 -14.65,13.2 -22.06,19.69 -5.81,3.7 -12.15,6.53 -18.13,9.94 -4.59,2.22 -8.84,5.18 -13.7,6.8 0.6,-0.93 1.34,-1.71 2.24,-2.34 10.45,-6.94 21.1,-13.57 31.79,-20.13 4.34,-2.54 7.4,-6.64 11.03,-10.02 5.9,-6.08 12.24,-11.74 17.6,-18.33 z M 382.6,200.62 c 1.98,-1.84 4.24,-3.35 6.55,-4.77 0.85,0.57 1.7,1.14 2.55,1.72 -2.38,3.63 -6.08,6.04 -9.18,8.99 -10.7,9.63 -21.82,18.77 -32.97,27.87 -8.15,6.22 -14.52,14.35 -21.93,21.37 -1.29,0.47 -2.93,0.42 -3.6,-0.96 4.53,-5.37 9.88,-10.03 14.76,-15.09 14.54,-13.12 29.24,-26.06 43.82,-39.13 z m 34.17,437.85 c 6.16,0.59 11.1,4.72 16.62,7.15 12.03,6.57 25.07,11.58 35.79,20.31 -6.77,-2.42 -13.81,-4.35 -19.99,-8.11 -9.6,-5.4 -19.18,-10.83 -28.82,-16.15 -1.4,-0.8 -2.91,-1.66 -3.6,-3.2 z m 25.21,-1.64 c 3.85,0.77 7.43,2.44 11.03,3.97 7.87,3.42 15.78,6.79 23.62,10.31 0.43,0.97 0.87,1.94 1.31,2.92 -9.95,-3.86 -19.98,-7.5 -29.96,-11.26 -2.88,-0.87 -4.29,-3.73 -6,-5.94 z M 277.35,536.28 c 3.14,-1.99 6.76,-3.09 10.08,-4.77 0.17,1.04 0.34,2.09 0.5,3.15 -7.92,5.43 -16.29,10.34 -23.25,17.02 -4.76,4.24 -9.56,8.44 -14.28,12.73 -2.96,2.97 -7.12,4.08 -10.87,5.7 0.21,-0.43 0.63,-1.28 0.84,-1.7 6.02,-4.99 12.24,-9.74 18.35,-14.62 6.93,-5.04 12.29,-11.82 18.63,-17.51 z m 422.84,-0.93 c 25.14,-12.59 50.61,-24.54 75.92,-36.8 -5.03,5.01 -9.68,10.52 -15.34,14.83 -8.77,4.32 -18.04,7.59 -26.97,11.57 -8.62,3.83 -17.64,6.8 -26.02,11.1 0.31,1.65 1.67,2.71 3.08,3.47 12.18,6.36 23.9,13.58 36.19,19.72 -10.55,1.2 -20.69,4.79 -31.21,6.34 0.21,1.69 0.47,3.51 2.09,4.48 8.18,6.17 16.31,12.44 24.36,18.79 1.47,1.11 3.14,1.94 4.81,2.72 -7.73,0.14 -15.33,-1.45 -23.05,-1.18 -7.66,-1.11 -15.41,-1.26 -23.13,-1.09 -9.48,1.49 -18.39,5.34 -27.8,7.19 -1.69,-0.14 -3.32,2.83 -1.03,3.21 13.22,5.61 26.47,11.26 39.94,16.28 -15.35,6.32 -30.62,12.81 -45.91,19.28 -7.63,1.16 -15.31,2.04 -22.91,3.38 -5.37,0.96 -10.92,0.94 -16.15,2.6 3.78,5.89 9.84,9.58 15.13,13.94 4.27,3.21 8.07,7.1 12.9,9.53 -6.44,-0.52 -12.64,-2.44 -19.04,-3.22 -6.7,-0.85 -13.24,-2.62 -19.93,-3.43 0.03,0.58 0.09,1.74 0.12,2.32 2.55,1.71 5.08,3.45 7.69,5.08 -3.27,-0.2 -6.56,-0.27 -9.79,0.25 -5.44,0.95 -10.97,0.53 -16.46,0.71 1.57,3.98 5.26,6.45 8.22,9.34 -4.57,-1.82 -9.4,-2.75 -14.14,-3.96 -12.95,-3.17 -25.88,-6.44 -38.81,-9.68 0.43,2.08 0.96,4.16 1.83,6.12 3.6,8.21 6.95,16.53 10.72,24.66 -10.37,-8.15 -21.1,-15.84 -31.55,-23.89 -1.66,-1.42 -3.96,-2.28 -6.08,-1.43 -11.71,4.75 -23,10.55 -34.85,14.91 0.13,5.31 3.21,9.81 4.94,14.67 1.41,3.97 3.48,7.67 4.71,11.71 -0.26,-0.47 -0.78,-1.43 -1.04,-1.9 -0.93,0.04 -1.86,0.09 -2.77,0.16 0.02,-0.21 0.06,-0.63 0.09,-0.83 0.33,-0.29 1,-0.86 1.34,-1.15 -6.94,-4.49 -12.25,-10.98 -18.35,-16.47 3.56,-5.1 6.98,-10.3 10.37,-15.52 13.48,-1.9 26.81,-4.78 40.33,-6.38 -1.81,-2.7 -3.94,-5.16 -5.87,-7.77 11.38,8.6 22.29,17.82 33.72,26.35 -3.67,-8.74 -8.78,-16.8 -12.84,-25.37 17.27,4.46 34.49,9.16 51.86,13.15 -3.01,-3.01 -6.61,-5.32 -10,-7.85 7.53,-2.71 15.71,-3.07 23.2,-5.93 -7.79,-1.61 -15.69,-2.6 -23.55,-3.79 0.06,-0.22 0.18,-0.67 0.24,-0.89 2.83,-1.88 5.97,-4.41 9.6,-3.69 14.5,2.28 28.86,5.57 43.43,7.32 -4.78,-4.8 -9.21,-10.07 -14.71,-14.07 -1.73,-2.73 -4.05,-4.99 -6.4,-7.17 9.47,-2.72 19.11,-4.82 28.65,-7.31 5.94,-1.61 12.08,-2.59 17.74,-5.06 9.83,-4.02 19.75,-7.79 29.51,-11.97 -13.37,-5.57 -26.82,-11.01 -40.37,-16.13 1.73,-1.61 3.32,-3.64 5.77,-4.12 8.97,-2.35 17.95,-4.66 26.91,-7.03 8.8,-1.51 17.65,0.59 26.48,0.54 6.12,-0.01 12.24,0.1 18.37,-0.07 -12.53,-6.56 -25.48,-12.29 -38.13,-18.6 14.09,-3.48 28.22,-6.85 42.23,-10.65 -5.14,-3.42 -10.83,-5.89 -16.19,-8.94 -7.61,-3.69 -14.7,-8.31 -22.1,-12.38 z M 249.4,499.04 c 0.86,0.31 1.72,0.63 2.59,0.96 -1.57,2.69 -2.95,5.55 -5.14,7.81 -13.73,14.62 -27.39,29.31 -41.09,43.96 -8.69,9.59 -18.39,18.18 -27.72,27.14 0.46,-0.8 0.94,-1.59 1.51,-2.29 13.8,-15.55 27.58,-31.11 41.44,-46.6 9.43,-10.36 18.39,-21.17 28.41,-30.98 z m 175.3,-10.32 c 3.87,-1.51 7.51,-3.53 11.31,-5.19 -1.23,1.9 -2.27,4.21 -4.64,4.89 -6.53,2.6 -12.83,5.8 -19.52,7.98 -6.56,1.65 -13.21,2.95 -19.71,4.84 -3.34,0.81 -6.66,1.67 -9.95,2.62 0.03,-0.63 0.08,-1.88 0.11,-2.51 14.39,-3.31 28.43,-7.88 42.4,-12.63 z m -193.04,-9.18 c 1.34,-1.86 3.66,-2.35 5.71,-2.98 -4.36,6.15 -8.43,12.62 -14.02,17.77 -16.43,17.21 -33.14,34.14 -50.33,50.59 0.57,-1.98 0.7,-4.24 2.02,-5.9 12.94,-13.36 26.66,-25.99 39.02,-39.91 5.86,-6.54 11.85,-12.95 17.6,-19.57 z m 275.53,-19.32 c 3.34,-2.14 6.41,-4.72 10.01,-6.44 -0.35,2.18 -2.16,3.39 -3.83,4.52 -4.61,3.34 -9.22,6.68 -13.74,10.14 -6.38,4.65 -12.68,9.44 -19.24,13.83 -11.07,6.01 -22.22,11.86 -33.36,17.75 l 1.06,-1.8 c -0.47,-0.13 -1.43,-0.39 -1.91,-0.52 0.7,0.16 2.09,0.49 2.79,0.65 l -0.08,-1.3 c 5.94,-2.09 10.38,-7.07 15.7,-10.36 6.03,-3.76 12.27,-7.19 18.43,-10.75 8.43,-4.64 16.13,-10.46 24.17,-15.72 z M 188,451.95 c 2.42,-1.85 5.34,-2.84 8.11,-4.03 0.33,0.98 1.22,2.26 -0.19,2.86 -27.29,19.8 -53.37,41.21 -79.18,62.89 -1.87,1.61 -4.41,1.99 -6.66,2.83 1.26,-1.84 2.44,-3.73 3.93,-5.39 15.62,-14.57 32.83,-27.26 49.46,-40.64 7.93,-6.49 16.33,-12.37 24.53,-18.52 z m 2.3,-121.1 c 0.92,2.14 2.6,3.95 3.26,6.18 1.37,16.32 1.7,32.76 4.32,48.96 1.13,6.23 1.33,12.56 1.05,18.88 -1.13,-1.6 -2.87,-2.96 -3.39,-4.89 -0.45,-7.83 -0.07,-15.72 -0.82,-23.53 -1.57,-8.83 -2.87,-17.71 -4.82,-26.45 -0.46,-6.38 -1.6,-12.91 0.4,-19.15 z M 314.49,312.5 c 1.57,-0.48 3.16,-0.96 4.75,-1.41 -1.99,3.39 -5.01,6.18 -6.15,10.03 -3.27,9.75 -6.6,19.48 -9.9,29.23 -1.23,3.45 -1.94,7.15 -4.01,10.23 -0.22,-2.97 -0.19,-5.96 -0.16,-8.93 3.19,-8.81 6.08,-17.73 9.11,-26.6 1.47,-4.49 4.26,-8.35 6.36,-12.55 z m 17.35,-7.98 c 0.89,0.35 1.79,0.7 2.69,1.06 -5.15,9.18 -10.4,18.32 -15.28,27.65 -5.68,13.35 -11.17,26.79 -16.72,40.2 -0.6,1.49 -1.53,2.82 -2.63,3.99 -0.03,-1.55 0.16,-3.1 0.71,-4.55 4.07,-10.86 8.15,-21.72 12.05,-32.65 2.58,-6.17 4.05,-12.92 8.04,-18.4 3.73,-5.76 7.45,-11.52 11.14,-17.3 z m -19.3,-40.12 c 1.79,-2.5 4.56,-4.02 6.98,-5.83 0.09,3.15 -2.63,5.32 -4.08,7.87 -9.82,14.79 -20.68,28.86 -30.19,43.86 -6.39,8.8 -10.32,19.01 -15.45,28.53 -0.64,1.41 -2.35,1.65 -3.59,2.32 1.96,-8.19 6.62,-15.31 10.18,-22.84 11.7,-18.2 24.26,-35.84 36.15,-53.91 z m 537.59,-18.79 c 7.9,-5.26 16.7,-8.98 24.54,-14.35 -3.49,7.18 -7.37,14.18 -10.37,21.59 -3.34,7.93 -8.85,14.81 -11.47,23.06 15.31,0.41 30.67,-0.54 45.96,0.51 -3.78,2.17 -7.29,4.82 -10.29,7.97 -3.7,4.18 -9.47,5.27 -13.97,8.31 -0.23,0.44 -0.69,1.33 -0.92,1.77 -0.04,0.06 -0.11,0.18 -0.14,0.23 l 0.03,0.01 c 5.13,0.59 9.96,-1.61 14.94,-2.44 8.37,-2.25 17.11,-3.43 25.11,-6.82 5.7,-3.71 11.58,-7.14 17.45,-10.58 v 0.09 c -3.07,3.16 -3.91,7.54 -5.44,11.49 -3.47,8.36 -6.44,16.91 -9.83,25.29 -3.59,4.69 -8.2,8.51 -12.72,12.28 -4.97,4.36 -9.13,9.61 -14.41,13.62 -5.39,4.3 -9.49,10.04 -15.13,14.03 -1.05,0.92 -2.08,1.85 -3.1,2.79 -0.14,1.03 -0.27,2.07 -0.38,3.11 8.01,0 15.85,2.08 23.85,2.25 -11.43,8.47 -22.45,17.51 -33.6,26.35 -3.76,3.02 -8.5,4.28 -12.77,6.38 -10.46,4.88 -21.23,9.1 -31.56,14.27 0.1,0.63 0.29,1.89 0.39,2.52 9.21,6.01 18.58,11.79 27.67,18 -10.38,-0.22 -20.64,1.57 -30.98,2.06 -6.41,-0.26 -12.19,2.87 -18.28,4.35 1.1,3.63 5.35,4.1 8.14,5.98 -9.28,-3.48 -19.04,-5.62 -28.57,-8.32 20.97,-2.69 42.14,-3.42 63.17,-5.64 -9.79,-6.4 -20.32,-11.59 -30.36,-17.58 16.94,-9.41 34.44,-17.83 50.79,-28.3 9.06,-5.96 18.73,-11.03 27.51,-17.41 -8.6,-0.27 -17.2,-0.12 -25.8,-0.37 10.89,-9.59 21.65,-19.33 32.58,-28.88 4.95,-5.12 9.17,-10.9 13.84,-16.27 3.03,-3.98 7.15,-7.36 8.66,-12.29 2.16,-6.67 4.97,-13.13 6.73,-19.93 -6.74,3.08 -13.05,7.14 -20.02,9.67 -15.56,3.06 -31.16,5.96 -46.76,8.74 3.1,-2.71 6.28,-5.33 9.45,-7.98 7.37,-7.09 17.8,-9.14 26.6,-13.88 -5.09,-1.76 -10.51,-2.18 -15.75,-3.37 -11.35,-2.59 -22.86,0.64 -34.3,0.07 5.63,-6.58 12.52,-12.33 16.23,-20.32 1.97,-3.5 3.81,-7.08 5.75,-10.59 1.44,-2.49 2.84,-5.01 4.1,-7.6 -7.3,2.34 -14.16,5.91 -21.52,8.02 -8.03,0.92 -16.13,1.26 -24.13,2.44 -2.42,0.33 -4.78,-0.36 -7.09,-0.95 -5.5,-1.46 -11.07,-2.67 -16.53,-4.28 1.34,-2.28 2.79,-4.51 4.54,-6.51 6.75,-1.39 13.35,-3.45 19.96,-5.41 -3.8,2.42 -7.62,4.81 -11.6,6.9 -0.03,0.5 -0.08,1.51 -0.1,2.01 9.7,1.7 19.58,2.18 29.33,3.62 3.49,0.54 7.04,0.49 10.57,0.29 z m -430.52,-23 c 1.37,-1.14 6.73,-1.21 4.55,1.43 -19.32,12.24 -36.99,27.04 -57.14,37.99 -0.1,-1.45 0.87,-2.35 1.99,-3.04 16.88,-12.1 33.41,-24.72 50.6,-36.38 z M 239.12,190.02 c 2.78,-3.08 5.19,-7.09 9.57,-7.97 -0.72,4.43 -4.38,7.36 -6.74,10.93 -5.54,6.88 -9.09,15.05 -13.64,22.56 -4.89,8.35 -8.41,17.41 -12.77,26.04 -1.31,2.15 -1.45,4.68 -2.03,7.07 -0.63,-0.43 -1.88,-1.29 -2.51,-1.72 0.7,-2.87 1.11,-5.85 2.53,-8.48 5.79,-10.98 11.63,-21.94 16.89,-33.19 2.55,-5.26 5.51,-10.34 8.7,-15.24 z m -82.69,272.59 c 1.43,-1.57 3.29,-0.11 4.13,1.29 -0.14,0.77 -0.42,2.32 -0.56,3.1 -15.82,10.9 -31.7,21.71 -47.48,32.66 -2.27,1.63 -5.05,2.23 -7.68,2.99 -5.71,1.57 -11.35,3.37 -17.08,4.87 7.99,-5.33 18.32,-6.57 25.82,-12.85 10.21,-7.49 20.45,-14.95 30.69,-22.42 4.11,-3.13 8.56,-5.88 12.16,-9.64 z m 145.3,-293.95 c 1.14,-1.83 3.29,-2.47 5.16,-3.27 -0.36,1.65 -0.68,3.38 -1.72,4.76 -7.95,11.04 -16.02,22 -23.92,33.08 -6.05,9.65 -11.78,19.49 -17.79,29.16 -0.88,1.36 -1.57,2.83 -2.09,4.37 -1.17,0.41 -2.35,0.82 -3.52,1.22 -0.21,-1.5 -0.32,-3.09 0.69,-4.34 5.72,-9.65 11.23,-19.43 16.98,-29.07 8.63,-12.04 17.29,-24.07 26.21,-35.91 z m 196.52,436.96 c 9.91,-0.55 19.84,-0.75 29.76,-1.06 1.36,-0.25 2,1.27 2.98,1.95 -7.35,1.03 -14.73,2.67 -22.15,1.31 -3.43,-0.86 -8.13,0.72 -10.59,-2.2 z m 161.88,-41.87 c 4.34,-0.41 8.52,-1.8 12.83,-2.42 -5.2,2.38 -10.21,5.85 -16.09,6.12 -21.1,2.08 -42.17,4.45 -63.29,6.34 -0.5,-1.11 -0.98,-2.21 -1.47,-3.31 22.68,-2.23 45.34,-4.51 68.02,-6.73 z m -68.18,-40.63 c 5.29,-1.42 10.88,-0.95 16.13,-2.53 0.5,0.72 1.49,2.15 1.99,2.86 -21.28,4.08 -42.65,7.67 -63.83,12.24 -3.1,0.62 -6.21,1.28 -9.35,1.64 2.66,-1.41 5.65,-2.01 8.56,-2.69 15.51,-3.82 31,-7.67 46.5,-11.52 z M 180.3,507.23 c 2.28,-2.62 5.83,-3.34 8.96,-4.46 -7.56,8.88 -16.02,16.97 -23.94,25.53 -6.19,6.27 -11.92,13.02 -18.44,18.95 1.67,-3.96 2.49,-8.6 5.82,-11.58 9.27,-9.42 18.41,-18.96 27.6,-28.44 z m 438.19,-12.65 c 8.05,-2.03 16.08,-4.12 24.09,-6.3 0.58,-0.01 1.74,-0.05 2.32,-0.06 -5.9,1.63 -11.54,4.07 -17.25,6.25 -12.65,4.26 -24.7,10.17 -37.57,13.8 -9.43,2.85 -18.76,6.05 -28.26,8.64 3.12,-2.97 6.33,-6.32 10.71,-7.26 8.5,-2.25 17,-4.56 25.49,-6.84 7.16,-1.88 13.25,-6.51 20.47,-8.23 z m -178.1,-26.96 c 0.37,-0.13 1.11,-0.39 1.48,-0.52 -2.42,2.84 -4.5,6.31 -8.14,7.72 -12.27,5.65 -24.56,11.29 -36.81,16.99 -3.07,1.46 -6.14,2.99 -9.45,3.81 -9.26,2.23 -18.56,4.32 -27.79,6.69 -3.92,0.95 -7.84,1.93 -11.82,2.62 1.11,-1.07 1.36,-3.35 3.15,-3.65 10.13,-2.74 20.32,-5.29 30.48,-7.94 3.88,-1.06 7.91,-1.75 11.56,-3.52 11.44,-5.55 22.96,-10.96 34.41,-16.48 4.25,-2.04 8.48,-4.14 12.93,-5.72 z m 285.67,-29.39 c 4.7,-1.61 9.29,-3.93 14.38,-3.85 -0.09,0.9 -0.29,2.7 -0.39,3.6 -25.78,8.56 -51.59,17.07 -77.36,25.66 -1.56,0.68 -3.19,0.71 -4.51,-0.48 1.38,-1.42 2.59,-3.26 4.68,-3.69 8.55,-2.57 17.37,-4.41 25.6,-7.98 1.29,-0.4 2.59,-0.82 3.89,-1.24 11.25,-3.97 22.47,-8.03 33.71,-12.02 z m -44.61,-1.76 c 6.64,-2.94 13.07,-6.38 19.92,-8.84 -0.93,1.65 -1.9,3.28 -2.88,4.91 -9.97,4.31 -20.2,8.08 -29.83,13.15 -7.45,3.75 -14.96,7.38 -22.36,11.24 0.61,-1.67 1.25,-3.31 1.84,-4.97 11.08,-5.21 22.21,-10.32 33.31,-15.49 z M 508.7,384.74 c 1.37,-0.77 2.78,-1.48 4.18,-2.22 -3.4,5.5 -7.05,10.83 -10.52,16.28 -11.14,16.13 -23.91,31.02 -36.23,46.24 -0.87,1.21 -2.18,1.89 -3.66,2.03 9.38,-11.52 18.33,-23.4 27.52,-35.09 4.4,-6.06 8.02,-12.65 12.11,-18.93 1.99,-2.9 3.28,-6.62 6.6,-8.31 z M 279.09,357.03 c 1.87,-5.08 3.69,-10.47 8.03,-14.03 2,4.14 -2.53,7.58 -3.48,11.44 -5.53,20.87 -9.73,42.06 -14.52,63.1 -3.27,-0.47 -1.98,-4.42 -1.95,-6.69 3.56,-18.03 7.37,-36.02 11.92,-53.82 z m -61.54,-10.69 c 0.79,-2.45 2.29,-4.59 3.47,-6.85 0.47,0.41 1.41,1.23 1.88,1.64 -0.8,8.64 -3.05,17.14 -3.09,25.86 -0.22,8.03 -0.65,16.06 -0.76,24.09 0.42,13.01 0.91,26.01 1.38,39.02 0.1,2.15 -0.31,4.27 -0.68,6.39 -1.44,-1.04 -2.99,-2.47 -2.73,-4.44 -0.04,-21.03 0.09,-42.07 -0.38,-63.11 -0.28,-7.54 0.03,-15.1 0.91,-22.6 z m 508.71,-5.08 c 6.35,-2.29 12.96,-3.87 19.45,-5.73 -0.1,0.62 -0.31,1.85 -0.42,2.46 -6.16,3.01 -12.87,4.85 -18.72,8.49 -6.87,4.16 -14.42,7.32 -20.59,12.56 -3.82,3.04 -7.76,5.92 -11.49,9.05 -0.95,-0.65 -2.16,-1.04 -2.75,-2.07 5.67,-5.13 11.43,-10.32 18.04,-14.24 5.51,-3.48 10.89,-7.17 16.48,-10.52 z M 264.48,306.28 c 1.24,-1.35 2.85,-2.31 4.48,-3.11 1.89,0.44 1.59,2.54 1.6,4.04 -1.44,1.98 -3.74,3.33 -4.59,5.7 -6.32,16.25 -11.88,32.77 -17.79,49.17 -2.65,8.43 -4.63,17.06 -5.91,25.8 0,2 -2.07,2.71 -3.36,3.77 -1.45,-2.16 -0.35,-4.74 -0.16,-7.09 1.02,-5.53 0.9,-11.37 3.31,-16.56 4.24,-11.17 9.17,-22.09 12.44,-33.59 2.84,-9.55 5.97,-19.01 9.98,-28.13 z m -64.4,-17.37 c 0.7,-1.63 1.38,-4.34 3.23,-4.7 0.56,1.22 1.1,2.48 1.42,3.81 -0.53,11.64 -0.58,23.32 -0.84,34.98 -0.27,9.38 0.03,18.8 -1.36,28.11 -1.71,-0.44 -1.78,-2.44 -2.39,-3.79 0.78,-5.05 0.23,-10.19 0.38,-15.27 -0.15,-14.38 0.39,-28.78 -0.44,-43.14 z m 25.15,-46.01 c 0.01,-2.54 2.48,-3.88 3.93,-5.6 0.46,0.42 1.37,1.26 1.83,1.69 -1.7,9.4 -4.16,18.67 -6,28.05 -3.79,18.44 -7.31,36.94 -11.29,55.35 -2.09,-2.19 -2.34,-5.56 -1.76,-8.4 1.81,-11.01 3.51,-22.03 5.25,-33.05 2.4,-12.74 6.96,-25.06 8.04,-38.04 z m 33.78,19.01 c 3.3,-9.17 5.36,-19.34 12.11,-26.74 0.87,3.12 -0.94,5.92 -1.98,8.73 -2.82,7.34 -6.14,14.49 -8.39,22.04 -4.9,15.16 -9.87,30.29 -14.67,45.48 -0.89,0.04 -2.68,0.12 -3.57,0.16 0.02,-2.2 -0.19,-4.49 0.71,-6.57 5.26,-14.37 10.57,-28.72 15.79,-43.1 z m -14.57,-17.5 c 0.91,-3.26 2.75,-7.22 6.24,-8.15 l 0.74,0.64 c -7.96,25.82 -16.89,51.33 -25.23,77.03 -1.58,3.46 -2.31,7.82 -5.57,10.13 1.19,-6.9 3.25,-13.62 4.88,-20.43 6.09,-19.81 11.91,-39.72 18.94,-59.22 z m 71.59,-33.44 c 1.71,-0.49 3.42,-1 5.14,-1.48 0,4.45 -3.14,7.75 -5.44,11.23 -8.37,11.56 -15.15,24.15 -22.63,36.29 -4.9,7.83 -9.01,16.11 -13.92,23.93 7.84,-16.07 15.5,-32.23 23.29,-48.32 4.25,-7.38 9.05,-14.43 13.56,-21.65 z m 63.63,-23.31 c 2.56,-1.66 5.54,-2.48 8.34,-3.64 -0.17,1.15 -0.33,2.3 -0.49,3.45 -7.48,4.97 -15.01,9.84 -22.54,14.73 -9.55,6.2 -18.11,13.85 -27.76,19.87 1.21,-3.2 4.32,-4.86 6.82,-6.92 11.82,-9.24 23.5,-18.66 35.63,-27.49 z m 46.23,-19.84 c 3.33,-3.39 8.05,-4.67 12.16,-6.83 0.63,4.43 -3.66,6.21 -6.56,8.43 -7.11,5.21 -13.66,11.13 -20.62,16.52 -0.37,-0.82 -1.09,-2.44 -1.46,-3.25 5.36,-5.11 11.02,-9.87 16.48,-14.87 z M 296.21,400.09 c 0.69,-2.57 3.14,-3.86 5.16,-5.26 -0.2,1.8 -0.51,3.6 -1.19,5.3 -3.06,7.74 -5.98,15.53 -8.92,23.32 -3.66,9.14 -6.84,18.48 -10.76,27.51 0.22,-1.21 0.44,-2.43 0.68,-3.62 1.23,-5.47 1.54,-11.17 3.6,-16.43 3.88,-10.25 7.62,-20.55 11.43,-30.82 z m 229.31,-20.05 c 0.45,-0.66 0.91,-1.33 1.37,-1.98 0.55,1.45 1.1,2.9 1.67,4.36 -0.76,1.29 -1.52,2.58 -2.28,3.87 -4.4,7.31 -8.31,14.91 -12.85,22.13 -11.88,14.7 -24.68,28.63 -37.74,42.28 -4.64,4.1 -9.99,7.29 -14.91,11.03 -2.97,2.01 -5.58,4.84 -9.25,5.53 6.55,-6.4 14.45,-11.33 20.62,-18.14 10.81,-11.82 21.76,-23.5 32.57,-35.31 5.91,-7.54 11.22,-15.55 16.93,-23.24 1.4,-1.99 2.8,-3.98 4.3,-5.89 -0.13,-1.55 -0.28,-3.1 -0.43,-4.64 z M 331.37,171.1 c 0.53,0.27 1.6,0.81 2.13,1.08 -0.92,4.6 -5.52,6.69 -8.01,10.3 -6.17,8.15 -12.13,16.47 -18.2,24.7 -4.14,5.55 -7.82,11.55 -13.19,16.03 -2.77,2.24 -4.78,5.6 -8.21,6.87 1.4,-2.54 3.24,-4.81 4.96,-7.15 11.19,-15.15 22.31,-30.35 33.55,-45.46 1.91,-2.54 4.59,-4.31 6.97,-6.37 z m -52.04,-7.81 c 1.41,-1.63 3.33,-2.66 5.15,-3.73 -0.46,1.8 -0.56,3.78 -1.67,5.34 -6.79,9.72 -14.17,19.01 -21.29,28.48 -4.8,8.04 -9.13,16.38 -13.39,24.68 -1.05,-1.01 -2.1,-2.01 -3.14,-3.02 4.5,-7.84 8.57,-15.94 13.41,-23.57 6.95,-9.42 12.94,-19.58 20.93,-28.18 z m 68.47,5.51 c 11.43,-9.84 22.51,-20.08 34.08,-29.74 -9.54,9.76 -19.32,19.3 -28.93,29.01 -2.28,2.26 -4.45,4.64 -6.99,6.62 -0.6,-2.14 -0.01,-4.57 1.84,-5.89 z M 723.6,92.44 c 0.08,-0.15 0.26,-0.46 0.34,-0.61 -0.27,2.34 -0.57,4.7 -1.37,6.93 -3,8.9 -5.87,17.84 -8.97,26.7 -0.85,2.31 -1.32,4.72 -1.67,7.15 8.1,-0.67 16.13,1.99 24.2,0.8 6.41,-2.22 12.39,-5.57 18.58,-8.33 -5.53,5.58 -7.46,14.07 -14.2,18.48 -3.57,2.94 -6.25,6.93 -10.51,9 0.5,0.86 0.24,2.56 1.43,2.78 7.71,1.39 15.37,3.1 23.07,4.62 l 1.1,0.38 c -11.42,0.26 -22.83,0.01 -34.25,0.13 7.61,-9.22 15.18,-18.48 22.54,-27.9 -11.35,1.69 -22.43,4.81 -33.76,6.6 -5.56,16.97 -11.23,33.91 -16.7,50.92 3.14,-0.05 6.34,0.34 9.44,-0.31 3.85,-1.18 7.51,-2.9 11.38,-4.02 -2.99,8.13 -6.25,16.16 -9.32,24.26 -0.65,1.84 -1.7,3.52 -3.24,4.72 -6.31,5.32 -12.56,10.71 -18.82,16.09 9.49,0.65 18.92,1.91 28.39,2.83 -8.19,5.44 -16.89,10.08 -25.3,15.16 2,1.39 3.76,3.35 6.12,4.11 4.89,0.38 9.81,-0.04 14.71,0.21 -8.9,6.09 -18.32,11.39 -27.38,17.25 -5.22,3.67 -11.62,4.75 -17.47,7.02 3.55,2.35 7.01,4.83 10.41,7.38 -6.41,1.96 -12.94,3.49 -19.39,5.33 -3.96,1.21 -8.15,0.77 -12.23,1.06 4.05,1.32 8.16,2.49 12.05,4.25 -11.78,2.36 -23.57,4.7 -35.35,7.11 -3.41,0.71 -6.9,0.13 -10.31,-0.2 -10.85,-0.87 -21.73,-1.41 -32.56,-2.55 11.77,-6.72 23.85,-12.89 35.68,-19.51 -8.94,-1.79 -17.79,-3.94 -26.7,-5.85 4.23,-4.18 8.74,-8.06 13.25,-11.93 -5.94,0.41 -11.87,1.03 -17.82,1.42 7.34,-5.67 14.98,-10.94 22.49,-16.38 6.65,-4.2 10.9,-11 16.36,-16.49 -12.39,2.88 -24.75,5.88 -37.22,8.42 -2.32,0.4 -3.96,2.19 -5.65,3.67 -7.92,7.24 -15.99,14.32 -23.89,21.59 2.33,-4.6 3.72,-9.75 6.73,-13.95 5.93,-5.09 12.33,-9.63 18.39,-14.58 2.34,-2.49 6.62,-1.87 8.17,-5.26 8.07,-4.55 16.67,-8.12 24.65,-12.83 13.66,-9.05 27.23,-18.24 40.91,-27.26 2.49,-1.5 4.15,-3.92 5.67,-6.33 5.82,-9.02 12.11,-17.75 17.77,-26.87 4.45,-6.58 8.87,-13.18 13.21,-19.83 6.3,-10.98 11.43,-22.62 17.45,-33.75 2.28,-3.6 5.48,-6.48 7.95,-9.95 -1.91,4.84 -3.32,9.85 -5.13,14.73 -5.9,8.18 -10.81,17.02 -16.74,25.19 -11.67,18 -23.46,35.92 -35.08,53.95 -1.04,1.6 -2.34,3.01 -3.87,4.14 -13.3,9.81 -26.54,19.71 -39.84,29.52 0.31,2.11 0.61,4.22 0.92,6.34 3.53,-0.68 7.08,-1.29 10.63,-1.9 -3.58,6.65 -6.72,13.62 -10.91,19.89 -7.46,5.13 -15.38,9.59 -22.97,14.54 4.77,-0.45 9.54,-0.92 14.3,-1.45 -3.43,4.24 -7.64,7.73 -11.44,11.61 0.54,0.58 1.21,0.92 2.02,1.04 8.14,1.93 16.44,3.29 24.46,5.68 -11.16,6.83 -22.37,13.57 -33.52,20.42 9.06,0.6 18.13,-0.31 27.19,-0.49 8.84,-0.38 17.7,-0.23 26.54,-0.46 -4.16,-2.79 -8.69,-4.95 -12.97,-7.54 11.86,-1.84 23.79,-3.26 35.72,-4.51 -2.42,-2.56 -4.89,-5.09 -7.36,-7.59 9.38,-4.16 18.98,-7.82 28.31,-12.09 3.33,-2.24 7.17,-4.24 9.75,-7.28 -5.41,-2.66 -11.53,-3.6 -17.01,-6.16 7.89,-4.45 15.77,-8.91 23.71,-13.25 -9.29,-3.2 -18.75,-5.88 -28.04,-9.05 8.22,-5.23 16.99,-9.51 25.41,-14.4 1.77,-0.95 2.55,-2.9 3.5,-4.55 2.65,-5.13 5.51,-10.16 8.19,-15.27 -9.95,3.3 -19.72,7.11 -29.74,10.21 9.82,-24.7 19.84,-49.32 29.73,-73.99 5.38,-12.95 10.25,-26.13 15.88,-38.96 z M 162.67,691.87 c 3.14,-2.09 6.21,-4.44 9.81,-5.69 0.64,0.11 1.93,0.32 2.57,0.42 -4.42,1.01 -8.31,3.39 -12.38,5.27 z m 143.67,-42.19 c 12.48,14.87 24.9,29.8 37.31,44.73 0.97,1.12 2.05,2.15 3.18,3.13 0.37,-9.76 2.5,-19.39 2.16,-29.18 -2.12,-2 -4.19,-4.05 -6.12,-6.23 19.21,12.07 37.96,24.91 57.4,36.61 -2.36,-7.5 -5.19,-14.85 -7.94,-22.21 -0.72,-2.1 -1.45,-4.19 -2.15,-6.28 14.88,12.71 29.58,25.67 44.81,37.97 0.05,-5.41 0.12,-10.84 -0.75,-16.19 -0.55,-6.49 -0.08,-13 -0.28,-19.5 19.94,10.16 39.57,20.94 59.41,31.28 -6.01,-1.72 -11.44,-4.93 -17.24,-7.2 -14.04,-5.65 -27.55,-12.64 -41.83,-17.65 0.96,12.66 1.68,25.34 2.95,37.98 -4.47,-3.88 -8.18,-8.59 -13.03,-12.04 -7.17,-6.57 -13.72,-13.79 -20.72,-20.54 -1.2,-1.32 -3.14,-1.2 -4.71,-1.64 0.31,2.82 0.94,5.62 2.21,8.18 2.26,4.79 3.47,10.01 5.97,14.69 -4.46,-2.9 -9.47,-4.79 -13.99,-7.57 -9.03,-5.03 -18.58,-9.1 -27.6,-14.15 -3.33,-2.15 -7.06,-3.52 -10.76,-4.88 -2.73,10.6 -4.25,21.49 -7.52,31.95 -11.16,-14.52 -22.22,-29.12 -33.08,-43.87 -1.23,-1.45 -2.33,-3.24 -4.13,-4 -1.88,-0.1 -2.65,1.84 -3.7,3.03 -2.25,3.31 -5.49,5.74 -7.87,8.94 -1.82,2.39 -3.82,4.63 -5.79,6.89 0.19,-1.33 0.37,-2.67 0.57,-3.98 -0.6,0.11 -1.79,0.32 -2.38,0.43 -0.98,2.02 -2.19,3.93 -3.67,5.64 -1.75,-5.5 -3.35,-11.06 -5.65,-16.36 -0.14,-0.41 -0.42,-1.23 -0.55,-1.64 0.03,-0.44 0.09,-1.31 0.11,-1.74 1.97,4.25 3.27,8.77 5.09,13.09 3.65,-3.49 7.19,-7.09 10.76,-10.66 0.08,2.35 0.45,4.71 1.69,6.76 2.54,-7.95 5.35,-15.82 7.84,-23.79 z m -108.07,11.49 c 27.83,-17.21 56.01,-33.84 84.06,-50.68 12.93,8.68 25.74,17.56 38.54,26.45 -13.07,-7.13 -25.9,-14.67 -38.88,-21.93 -12.01,6.66 -24.04,13.27 -36.1,19.82 -1.82,0.63 -2.32,2.55 -2.61,4.24 -0.55,3.8 -1.15,7.61 -1.43,11.45 7.79,-3.18 15.26,-7.07 22.91,-10.55 1.5,5.49 3.37,10.88 5.35,16.22 1.81,-2.63 3.62,-5.27 5.47,-7.87 0.66,2.07 1.37,4.14 2,6.24 0.08,0.36 0.25,1.07 0.33,1.43 -1.07,-0.33 -2.26,-1.05 -3.36,-0.41 -3.36,1.42 -6.51,3.29 -9.77,4.92 -0.06,-4.79 -0.04,-9.58 0.04,-14.37 -4.5,0.09 -8.59,2.05 -12.85,3.19 -5.52,1.91 -11.33,2.97 -16.66,5.41 2,-5.69 4.99,-11.1 5.81,-17.14 -1.27,0.5 -2.64,0.9 -3.64,1.89 -13.16,11.19 -25.77,22.95 -38.73,34.35 -3.86,2.43 -8.15,4.06 -12.17,6.19 -4.14,1.88 -7.93,4.58 -12.42,5.63 5.81,-5.12 13.2,-8.03 19.74,-12.11 l 0.16,-0.54 c 1.06,-4.07 3.03,-7.81 4.21,-11.83 z M 355.03,532.72 c 3.27,0 6.91,-0.48 9.81,1.4 7.61,4.69 15.19,9.44 22.82,14.09 4.51,2.67 7.78,6.86 11.69,10.28 2.21,2.2 4.46,4.37 6.63,6.62 -4.42,-2.71 -8.54,-5.86 -12.88,-8.68 -11.91,-9.13 -25.63,-15.41 -38.07,-23.71 z m -334.86,1.41 c 0.83,-0.98 1.81,-1.8 2.74,-2.65 0.67,5.47 1.14,10.95 1.61,16.44 0.22,2.29 0.4,4.71 1.7,6.7 10.32,17.1 20.52,34.27 30.8,51.39 -1.56,3.5 -2.96,7.07 -4.47,10.59 -1.34,3.36 -4.17,5.76 -6.56,8.36 -4.26,-5.76 -8.65,-11.43 -12.97,-17.14 l -0.39,-1.4 c 1.58,0.59 3.43,0.98 4.39,2.53 3.22,4.18 5.99,8.67 9.11,12.92 3.32,-4.52 2.4,-10.69 2.56,-15.98 -1.79,-5.83 -3.83,-11.65 -6.46,-17.17 -6.02,-10.63 -11.82,-21.38 -17.99,-31.93 -3.12,-4.72 -2.76,-10.53 -3.52,-15.9 -0.24,-2.25 -0.66,-4.5 -0.55,-6.76 z m 784.15,-93.62 c 0.13,-0.13 0.4,-0.38 0.53,-0.51 4.53,2.56 9.15,5.09 14.22,6.41 -10.1,1.62 -20.18,3.43 -30.22,5.4 -4.95,0.82 -8.83,4.19 -13.12,6.5 -2.49,1.52 -6.3,2.36 -5.84,6.06 5.49,1.73 11.23,2.75 16.6,4.83 1.72,0.73 3.51,1.25 5.36,1.58 -11.74,5.11 -23.28,10.68 -34.69,16.48 -2.08,1.19 -5.23,1.61 -5.52,4.5 10.42,0.21 20.84,-0.14 31.25,0.16 -1.89,1.93 -3.8,3.85 -5.77,5.69 -12.71,-2.32 -25.71,-3.01 -38.35,-5.64 15.92,-7.65 32.13,-14.72 48.1,-22.28 -5.84,-1.42 -11.9,-1.45 -17.81,-2.45 -8.02,-1.49 -15.5,2.57 -23.3,3.61 16.97,-8.72 34.02,-17.31 50.99,-26.03 2.56,-1.36 5.3,-2.47 7.57,-4.31 z M 288.43,376 c -2.94,12.63 -4.64,25.53 -7.71,38.13 -0.68,-1.94 -1.43,-3.95 -0.98,-6.02 0.97,-6.92 1.69,-13.88 2.8,-20.77 1.59,-3.95 4.02,-7.51 5.89,-11.34 z m 452.6,-193.63 c 4.28,-1.74 8.48,-3.67 12.66,-5.64 -3.13,1.86 -6.37,3.53 -9.69,5.02 0.08,0.73 0.23,2.19 0.3,2.93 1.44,0.46 2.88,0.93 4.33,1.41 5.71,3.86 12.6,5.47 18.29,9.41 3.51,2.71 8.05,2.35 12.21,1.95 9.13,-2.34 18.7,-3.01 27.77,-5.62 5.35,-3.08 9.83,-7.48 15.19,-10.59 -0.95,5.17 -1.14,10.52 -2.68,15.57 -4.88,7.19 -10.72,13.69 -15.93,20.65 -0.08,0.52 -0.24,1.56 -0.31,2.09 9.28,2.53 18.26,6.08 27.63,8.32 -2.1,1.03 -4.15,2.15 -6.17,3.31 -9.72,-2.5 -19.36,-5.26 -29.05,-7.85 -4.25,1.89 -8.49,3.8 -12.74,5.69 6.96,-6.11 13.98,-12.18 20.84,-18.39 3.73,-4.97 7.6,-9.88 10.79,-15.22 -2.52,1.16 -4.49,3.88 -7.48,3.65 -18.19,-0.04 -36.39,0.07 -54.58,-0.06 -3.31,-3.55 -6.82,-6.91 -10.21,-10.37 -0.27,-2.11 -0.64,-4.21 -1.17,-6.26 z m 20.25,-20.7 c 3.84,0.77 7.68,1.52 11.54,2.22 2.2,2.35 4.46,4.67 7.03,6.63 -6.73,0.75 -13.48,1.66 -20.08,3.19 0.91,-0.35 1.83,-0.69 2.77,-1.02 2.61,-1.17 5.3,-2.21 7.8,-3.64 -2.59,-2.94 -6.08,-4.88 -9.06,-7.38 z M 713.21,67.88 c 4.68,-0.77 9.27,-2.06 14.01,-2.47 -0.01,5.2 0.03,10.41 0.08,15.61 0.01,3.58 -0.44,7.56 -3.15,10.19 1.11,-6.81 0.9,-13.74 1.95,-20.55 -3.41,0.03 -6.82,-0.2 -10.21,0.14 -1.92,1 -3.34,2.71 -4.91,4.15 -14.38,13.64 -28.94,27.09 -43.28,40.77 -0.88,0.8 -1.9,1.42 -3.03,1.78 -26.76,7.92 -53.68,15.32 -80.21,24.01 -10.93,3.26 -21.74,6.94 -32.63,10.32 -2.82,0.58 -3.97,3.43 -5.47,5.53 -11.93,18.06 -24.07,35.98 -36.02,54.03 -0.67,-1.27 -2.28,-2.61 -1.12,-4.1 11.18,-18.5 22.71,-36.81 33.93,-55.3 0.73,-1.13 1.47,-2.44 2.89,-2.81 20.86,-7.53 41.74,-15 62.6,-22.52 15.33,-6 31.61,-8.92 47.42,-13.36 -1.4,-1.12 -2.7,-2.43 -4.36,-3.14 -5.27,-0.83 -10.5,0.63 -15.75,0.82 -5.12,0 -10.13,1.4 -15.26,1.05 8.5,-6.53 17.58,-12.34 25.51,-19.58 -7.92,0.81 -15.76,2.19 -23.67,3.1 0.32,-0.12 0.97,-0.37 1.29,-0.49 8.57,-2.06 17.12,-4.29 25.83,-5.74 -1.28,3.03 -1.45,6.91 -4.25,9.04 -3.75,2.87 -7.7,5.84 -9.93,10.13 6.49,0.32 12.98,-0.12 19.47,0.02 4.22,-0.36 7.34,3.27 11.51,3.33 1.66,-1.86 3.44,-3.62 5.43,-5.11 5.3,-3.99 9.2,-9.5 14.47,-13.54 5.86,-4.41 10.18,-10.54 16.1,-14.89 3.9,-3.12 7.15,-6.97 10.76,-10.42 z M 513.74,59.52 c 13.49,-5.89 26.7,-12.37 40.25,-18.13 -0.73,4.34 -1.18,8.71 -1.87,13.06 -1.27,9.74 -4.8,18.97 -7.18,28.46 15.72,-2.26 31.39,-4.82 47.11,-7.17 6.6,-0.3 13.25,-0.22 19.86,0.06 5.35,0.8 10.76,0.85 16.16,0.9 -1.12,0.29 -2.26,0.57 -3.37,0.84 -5.46,3.09 -11.46,5.02 -16.98,7.97 -2.64,1.4 -5.43,2.48 -8.28,3.37 -0.26,2.94 -0.25,5.91 -0.21,8.86 3.03,-0.13 6.07,-0.11 9.11,0.1 -12.15,1.23 -24.21,3.29 -36.31,4.88 l -0.18,-0.23 c 15.86,-8.1 31.75,-16.16 47.51,-24.45 -8.84,-0.47 -17.57,1.26 -26.4,1.21 -6.41,1.26 -13.22,-0.22 -19.34,2.42 -13.62,4.87 -27.31,9.54 -40.88,14.54 3.11,-6.7 6.46,-13.31 9.3,-20.14 3.08,-9.33 6.42,-18.58 9.21,-28 -5.46,2.88 -10.7,6.12 -16.27,8.78 -22.45,11.44 -44.97,22.74 -67.38,34.26 4.05,-4.48 8.61,-8.43 12.94,-12.63 9.02,-8.46 17.71,-17.26 26.53,-25.93 -1.96,3.71 -4.07,7.41 -5.24,11.47 4.41,-0.13 7.91,-3.05 11.91,-4.5 z m -75.05,394.46 c 3.04,-1.49 4.93,-4.55 7.51,-6.67 -6.91,7.33 -14.29,14.21 -21.1,21.65 -7.94,1.27 -15.94,2.16 -23.86,3.54 -0.25,-0.24 -0.74,-0.72 -0.99,-0.96 5.5,-0.05 10.13,-3.15 15.01,-5.23 2.54,-1.18 5.21,-2.14 7.58,-3.67 0.72,-1.79 -0.07,-3.85 -0.07,-5.73 5.31,-0.95 10.7,-1.59 15.92,-2.93 z m -76.02,186.1 c 7.52,4.95 14.08,11.29 21.13,16.9 -4.87,-3.05 -9.15,-6.91 -13.75,-10.33 -2.52,-2.11 -5.61,-3.7 -7.38,-6.57 z m 81.9,-304.92 c 5.01,-0.77 9.91,-3.33 15.05,-2.63 4.28,1.47 8.88,2.59 12.65,5.15 2.63,3.71 5.16,7.55 7.37,11.52 1.27,6.78 1.35,13.76 1.7,20.64 -4.49,-5.4 -7.73,-11.68 -11.68,-17.46 -2.08,-2.86 -3.25,-6.78 -6.67,-8.33 -6.12,-3.02 -12.54,-5.41 -18.42,-8.89 z m -66.28,139.35 c 4.75,-0.52 9.52,-1.54 14.32,-0.89 -4.52,0.85 -9.16,1.03 -13.64,2.16 -0.17,-0.32 -0.51,-0.96 -0.68,-1.27 z M 375.1,349.13 c 33.23,-7.99 66.66,-15.26 99.94,-23.1 2.52,5.69 5.45,11.2 7.81,16.94 0.67,21.67 0.75,43.38 1.14,65.07 -6.35,6.52 -12.71,13.05 -18.88,19.75 2.8,-3.53 6.41,-6.48 8.26,-10.69 2.29,-4.82 5.14,-9.37 7.31,-14.23 0.84,-5.58 0.28,-11.28 0.6,-16.9 0.06,-5.38 0.7,-10.77 0.06,-16.13 -0.35,-6.88 -0.43,-13.86 -1.7,-20.64 -2.21,-3.97 -4.74,-7.81 -7.37,-11.52 -3.77,-2.56 -8.37,-3.68 -12.65,-5.15 -5.14,-0.7 -10.04,1.86 -15.05,2.63 -1.89,0.15 -3.77,0.39 -5.61,0.87 -11.96,3.02 -24,5.72 -35.96,8.73 -8.26,2.13 -16.65,3.74 -24.74,6.46 -4.41,1.06 -6.73,5.31 -9.87,8.18 -5.3,5.06 -10.14,10.59 -15.54,15.55 -7.61,6.67 -14.21,14.4 -21.47,21.46 -4.38,4.42 -5.1,10.99 -7.62,16.46 -1.72,4.69 -3.89,9.25 -4.97,14.16 -2.75,11.72 -5.38,23.47 -8.27,35.16 3.35,4.03 7.25,7.53 10.97,11.2 9.45,0.97 18.8,2.71 28.2,4.06 9.42,1.29 18.66,-3.02 28.06,-1.81 -10.92,1.84 -21.92,3.15 -32.87,4.84 -1.97,0.3 -4,0.63 -5.95,0.04 -11.77,-2.77 -23.53,-5.62 -35.31,-8.34 0.76,-0.99 1.69,-1.93 1.94,-3.2 5.97,-22.88 12.04,-45.73 18.08,-68.59 0.34,-1.72 1.82,-2.79 2.97,-3.98 16.23,-15.68 32.1,-31.78 48.49,-47.28 z m -43.72,47.28 c 7.26,-7.06 13.86,-14.79 21.47,-21.46 0.67,16.02 0.63,32.07 1.2,48.1 8.54,8.47 17.21,16.81 25.7,25.32 1.86,2.04 4.79,2.1 7.32,2.63 11.92,1.83 23.73,4.46 35.7,5.91 0,1.88 0.79,3.94 0.07,5.73 -2.37,1.53 -5.04,2.49 -7.58,3.67 -4.88,2.08 -9.51,5.18 -15.01,5.23 0.25,0.24 0.74,0.72 0.99,0.96 -2.87,0.44 -5.72,1.11 -8.63,1.12 -4.8,-0.65 -9.57,0.37 -14.32,0.89 0.17,0.31 0.51,0.95 0.68,1.27 -0.3,-0.03 -0.91,-0.11 -1.22,-0.14 -9.4,-1.21 -18.64,3.1 -28.06,1.81 -9.4,-1.35 -18.75,-3.09 -28.2,-4.06 -3.72,-3.67 -7.62,-7.17 -10.97,-11.2 2.89,-11.69 5.52,-23.44 8.27,-35.16 1.08,-4.91 3.25,-9.47 4.97,-14.16 2.52,-5.47 3.24,-12.04 7.62,-16.46 z M 149.03,297.53 c 2.36,-1.15 4.84,-2.04 7.41,-2.59 0.57,13.96 0.62,27.93 1.14,41.89 0.14,4.86 2.2,9.33 3.7,13.87 7.45,22.15 15.02,44.25 22.53,66.37 0.68,1.44 0.72,3.17 -0.84,4.04 -5.03,3.99 -9.59,8.62 -14.93,12.19 -2.76,-0.28 -5.43,-1.1 -8.12,-1.78 -1.14,-1.09 -2.21,-2.27 -3.28,-3.43 -0.56,-0.02 -1.69,-0.06 -2.26,-0.09 -2.56,-2.65 -4.97,-5.54 -8.18,-7.44 -2.18,-3.19 -4.7,-6.18 -6.42,-9.64 -0.32,-2.69 0.66,-5.33 1.11,-7.95 4.3,-21.65 8.5,-43.33 12.77,-64.98 0.93,-11.62 0.51,-23.32 0.81,-34.97 -1.81,-1.84 -3.63,-3.66 -5.44,-5.49 z M 284.26,0 h 0.36 c 0.68,3.38 3.68,5.56 5.43,8.39 2.24,7.41 6.38,13.98 9.92,20.79 5.01,8.45 9.07,17.46 14.33,25.75 0.2,2.71 -0.49,5.87 1.63,8.02 4.47,5.23 7.8,11.41 12.61,16.32 5.66,3.37 11.25,6.87 16.95,10.17 5.61,1.58 10.16,-3.44 15.31,-4.83 7.53,-3.83 15.27,-7.31 22.63,-11.47 8.16,-3.66 16.1,-7.85 24.05,-11.93 7.01,-3.2 13.73,-7 20.77,-10.13 2.52,-0.96 3.6,-3.64 5.38,-5.47 11.54,-12.89 21.87,-26.86 33.54,-39.63 -0.46,8.6 3.09,17.45 -0.2,25.77 -3.13,11.87 -7.34,23.46 -10.03,35.43 7.19,-1.52 13.88,-4.65 20.66,-7.39 11.03,-4.17 21.99,-8.48 33.01,-12.68 -1.03,1.21 -2.03,2.47 -2.59,3.97 -7.65,1.96 -14.96,5.08 -22.57,7.2 -13.89,7.82 -26.88,17.17 -40.67,25.19 5.48,-17.9 11.35,-35.69 16.86,-53.57 0.37,-5.13 1.13,-10.22 1.42,-15.36 -2.84,2.72 -5.13,5.91 -7.59,8.95 -7.87,9.84 -15.76,19.65 -23.59,29.51 -1.57,2.17 -4,3.39 -6.25,4.71 -16,9.27 -31.77,18.97 -47.88,28.06 -37.87,16.14 -75.77,32.25 -113.66,48.35 -3.42,1.29 -5.44,4.49 -7.88,7 -6.32,6.72 -13.08,13.02 -19.3,19.84 -9.42,10.56 -19.93,20.08 -29.27,30.71 -3.82,4.51 -8.76,8.05 -12.05,12.98 -10.2,18.55 -20.27,37.17 -30.45,55.73 -1.88,2.82 -1.12,6.35 -0.7,9.48 1.29,6.7 -0.13,13.57 1.03,20.28 1.25,6.61 -0.16,13.39 1.02,20.01 1.25,6.86 -0.26,13.9 1.1,20.75 0.94,4.51 -0.27,9.22 1.01,13.67 0.37,0.97 0.74,1.94 1.11,2.92 2.6,8.37 5.21,16.75 8.06,25.05 0.11,0.47 0.34,1.41 0.45,1.87 0.38,1.02 0.76,2.05 1.12,3.09 2.39,7.68 4.84,15.35 7.37,23 1.76,5.36 3.37,10.78 5.28,16.1 -7.54,5.84 -13.7,13.18 -21.03,19.25 -4.97,4.35 -9.32,9.36 -14.4,13.59 -5.46,4.58 -10.11,10.01 -15.57,14.58 -5.75,4.85 -10.67,10.58 -16.47,15.37 -6.52,5.45 -11.8,12.39 -18.95,17.06 -8.87,3.68 -18,6.76 -26.84,10.51 4.17,2.56 8.28,5.26 12.61,7.57 6.08,2.46 12.86,2.73 18.93,5.2 10.49,8.43 20.59,17.37 30.99,25.92 3.49,2.51 5.04,6.65 7.13,10.24 3,5.29 5.96,10.6 8.96,15.9 14.16,-12.25 27.78,-25.11 41.66,-37.66 6.58,-5.8 12.21,-12.54 18.31,-18.82 4.29,-4.72 8.94,-9.12 12.81,-14.21 2.79,-3.59 5.61,-7.19 9.05,-10.19 -0.01,0.73 -0.05,2.19 -0.06,2.92 -3.77,6.45 -8.65,12.16 -13.94,17.42 -11.99,12.34 -23.16,25.52 -36.08,36.93 -7.13,6.52 -14.22,13.08 -21.34,19.63 -2.75,2.49 -5.24,5.44 -8.8,6.81 7.13,12.97 14.59,25.76 21.6,38.78 2.98,10.34 3.14,21.37 6.57,31.61 0.09,2.04 1.97,0.16 2.55,-0.43 10.26,-10.99 20.44,-22.08 30.81,-32.97 12.55,-11.21 25.37,-22.11 38,-33.23 8.47,-6.58 17.28,-12.73 25.83,-19.22 1.91,-1.53 4.11,-2.61 6.4,-3.44 7.12,-15.73 11.97,-32.32 17.71,-48.57 2.09,-5.34 0.6,-12.02 4.92,-16.34 7.39,2.91 9.59,11.41 12.98,17.82 6.69,12.73 10.93,26.5 16.18,39.85 0.94,2.57 3.61,3.77 5.63,5.37 4.17,3.17 8.9,5.76 12.2,9.92 2.6,3.18 5.32,6.26 7.96,9.4 8.4,10.67 18.6,19.74 27.62,29.86 2.05,2.68 3.38,5.82 4.94,8.8 -7.05,-6.52 -13.83,-13.31 -20.96,-19.73 -11.49,-9.2 -22.51,-19.03 -34.86,-27.1 -2.11,6.17 -2.67,12.99 -6.41,18.5 -1.99,3.11 -3.85,6.29 -5.72,9.47 -2.33,4.44 -7.15,6.51 -10.9,9.52 -5.51,-1.92 -11.55,-2.74 -16.43,-6.12 -5.63,-3.7 -11.32,-7.3 -17.04,-10.85 -4.64,-2.45 -5.9,-7.94 -8.56,-12.06 -11.82,8.36 -23.68,16.65 -35.43,25.1 -19.06,16.1 -37.96,32.41 -56.3,49.34 2.47,6.41 5.18,12.72 7.59,19.15 -0.3,0.48 -0.91,1.46 -1.21,1.95 -7.23,-19.18 -14.83,-38.21 -22.08,-57.38 -1.01,-2.6 -1.71,-5.73 -4.54,-6.96 -16.2,-9.35 -32.39,-18.73 -48.61,-28.05 -3.8,-2.04 -6.39,-5.56 -9.33,-8.6 -9.6,-10.1 -19.11,-20.29 -28.73,-30.37 -1.83,-2.04 -4.23,-3.86 -4.89,-6.66 -1.78,-6.61 -3.33,-13.29 -5.16,-19.89 -0.77,-3.52 -3.5,-6.03 -5.56,-8.82 -3.36,-4.16 -6.35,-8.59 -9.66,-12.78 -1.52,-2.2 -3.27,-4.22 -5.15,-6.12 l -0.03,-0.04 c -0.58,-1.34 -1.28,-2.67 -2.45,-3.57 l -0.57,0.12 c -1.6,0.28 -3.18,0.71 -4.61,1.49 -6.19,3.2 -12.31,6.58 -18.77,9.24 -2.14,11.11 -4.24,22.23 -6.43,33.33 -2.14,12.68 -7.48,24.48 -11.05,36.78 6.39,12.45 12.11,25.25 18.59,37.66 0.12,0.14 0.36,0.43 0.48,0.57 -1.64,7.07 -3.67,14.05 -5.26,21.14 -0.64,2.03 1.51,3.15 2.72,4.34 8.71,7.26 17.15,14.82 25.48,22.5 1.79,1.59 3.49,3.51 5.92,4.06 9.88,2.62 19.88,4.81 29.71,7.61 7.58,3.33 14.64,7.78 22.22,11.14 C 88.83,664.63 70.46,660.75 52.31,656.08 40.73,646.57 28.97,637.27 17.56,627.57 l -0.96,-0.24 c -1.55,-1.61 -3.23,-3.09 -5.14,-4.24 3.27,-3.75 3.79,-8.99 6.25,-13.23 1.14,-3.09 4.14,-6.44 2.15,-9.78 -5.69,-12.43 -10.34,-25.31 -16,-37.76 -1.13,-2.87 -3.11,-5.96 -1.74,-9.1 3.71,-11.37 7.56,-22.72 10.8,-34.23 1.18,-9.01 1.33,-18.16 2.46,-27.19 0.34,-2.68 0.05,-5.53 1.34,-7.99 2.33,-4.76 4.76,-9.47 7.16,-14.19 10.79,-0.14 21.58,0.04 32.36,-0.08 5.52,8.59 11.99,16.53 17.39,25.19 7.19,0.25 14.24,-1.4 21.36,-2.03 2.39,-0.2 5.16,0.2 7.01,-1.69 7.2,-7.27 15.87,-12.87 23.21,-19.97 4.2,-3.81 4.23,-9.99 7.1,-14.64 3.73,-6.47 6.64,-13.61 12.02,-18.94 1.45,3.81 3.12,7.55 4.33,11.46 1.7,-0.16 3.72,0.15 4.89,-1.4 3.17,-3.47 7.74,-5.59 10.3,-9.59 0.85,-3.08 -1.9,-4.77 -3.93,-6.41 2.69,0.68 5.36,1.5 8.12,1.78 5.34,-3.57 9.9,-8.2 14.93,-12.19 1.56,-0.87 1.52,-2.6 0.84,-4.04 -7.51,-22.12 -15.08,-44.22 -22.53,-66.37 -1.5,-4.54 -3.56,-9.01 -3.7,-13.87 -0.52,-13.96 -0.57,-27.93 -1.14,-41.89 -2.57,0.55 -5.05,1.44 -7.41,2.59 1.81,1.83 3.63,3.65 5.44,5.49 -0.3,11.65 0.12,23.35 -0.81,34.97 -4.27,21.65 -8.47,43.33 -12.77,64.98 -0.45,2.62 -1.43,5.26 -1.11,7.95 1.72,3.46 4.24,6.45 6.42,9.64 -3.57,-2.32 -6.84,-5.05 -10.14,-7.71 -2.04,-2.19 -2.88,-5.19 -4.31,-7.76 -1.77,-3.9 -4.48,-7.46 -5.09,-11.8 1.79,1.81 3.37,3.82 4.88,5.86 1.85,2.45 3.52,5.04 5.09,7.68 0.95,-1.83 1.98,-3.65 2.5,-5.66 4.08,-18.62 7.93,-37.29 10.73,-56.15 2.92,-12.84 0.67,-26.02 0.77,-39.03 0.45,-3.29 -2.45,-5.3 -4.33,-7.51 -1.21,0.52 -2.41,1.04 -3.61,1.57 -4.28,1.82 -5.95,6.53 -8.65,9.97 -3.6,5.67 -8.1,10.84 -11.07,16.87 1.39,6.16 3.83,12.04 5.53,18.13 -2.8,7.69 -6.19,15.18 -8.72,22.96 0.46,5.73 2.46,11.25 2.53,17.04 -2.58,-2.47 -3.18,-6.15 -3.94,-9.47 -0.83,-4.56 -1.61,-9.14 -2.74,-13.64 -2.59,-8.23 -2.37,-17.01 -4.82,-25.29 8.99,-11.66 17.79,-23.49 27.07,-34.93 1.42,-1.97 3.95,-2.37 6.09,-3.14 4.63,-1.26 8.43,-4.34 12.79,-6.21 -0.14,-7.77 -0.14,-15.55 -0.23,-23.32 -0.97,-10.04 -0.89,-20.14 -0.97,-30.21 6.48,-7.67 13.01,-15.3 19.2,-23.22 4.8,-5.16 9.03,-10.82 13.45,-16.3 13.1,-15.06 25.22,-31 38.56,-45.84 -0.33,-4.21 -2.44,-7.93 -4.17,-11.69 -3.11,-6.24 -5.43,-12.82 -8.31,-19.16 1.86,0.03 3.73,0.07 5.59,0.11 -0.28,-7.58 0,-15.12 0.79,-22.66 0.32,1.62 0.64,3.25 0.97,4.87 0.47,0.45 1.43,1.35 1.91,1.8 1.14,0.11 2.28,0.21 3.43,0.32 0,-5.36 -0.11,-10.73 -0.34,-16.08 -0.29,-4.59 1.21,-9.07 0.78,-13.66 1.91,2.18 3.97,4.22 6.02,6.27 0.64,0.07 1.9,0.21 2.53,0.28 -0.29,-5.05 -2.58,-9.75 -2.5,-14.84 1.79,1.03 3.49,2.18 5.1,3.47 1.39,0.23 2.78,0.45 4.17,0.67 -0.03,-5.51 -2.03,-11.39 0.72,-16.57 3.44,-6.94 6.8,-13.91 9.96,-20.97 3.64,-9.33 11.53,-15.89 17.22,-23.91 C 274.03,6.5 280.9,5.06 284.26,0 m -9.74,12.55 c -4.28,6.33 -8.97,12.38 -13.12,18.79 -4.84,9.57 -9.34,19.31 -14.12,28.92 -2.87,5.08 -2.64,11.09 -3.72,16.66 -1.85,-0.27 -3.7,-0.57 -5.54,-0.88 -0.29,4.05 2,9.12 -1.6,12.2 -1.49,-2.27 -3.33,-4.82 -6.43,-4.41 0.2,10.03 0.35,20.06 0.49,30.09 -3.23,-2.2 -6.25,-4.7 -9.56,-6.79 0.09,6.72 1.42,13.33 2.08,20 -2.11,-0.76 -4.22,-1.57 -6.32,-2.35 2.33,8.58 7.24,16.18 12.3,23.33 2.64,-1.66 3.69,-5.18 6.63,-6.52 9.1,-4.32 18.29,-8.46 27.4,-12.75 -2.72,-7.66 -5.5,-15.31 -9.97,-22.16 0.45,-0.91 0.9,-1.82 1.36,-2.72 1.12,0.73 2.56,1.25 3.02,2.65 2.05,4.88 4.09,9.76 6.32,14.57 0.86,2.08 1.81,4.12 2.94,6.07 2.45,-1.31 4.97,-2.47 7.53,-3.53 -0.47,-2.7 -1.83,-5.11 -3.14,-7.48 -2.36,-3.81 -2.76,-8.31 -2.91,-12.68 2.96,2.96 4.15,7.06 6.09,10.67 1.22,2.57 2.47,5.14 3.76,7.68 1.69,-0.8 3.38,-1.58 5.1,-2.31 -0.15,-2.93 -1.55,-5.54 -2.65,-8.19 -1.16,-2.88 -2.47,-5.76 -2.63,-8.91 0.72,0.17 2.17,0.52 2.9,0.69 0.61,1.96 1.21,3.93 1.79,5.91 0.67,3.26 1.89,6.38 3.73,9.16 0.45,-0.35 1.34,-1.06 1.78,-1.41 0.04,-3.05 -1.03,-5.97 -1.73,-8.91 -1.3,-3.21 -2.58,-6.73 -1.15,-10.15 2.01,2.65 3.32,5.73 4.12,8.95 0.78,2.82 1.72,5.61 2.79,8.34 3.71,-2 8.09,-3.23 11.22,-6.03 -1.86,-3.81 -5.22,-6.76 -7.08,-10.64 -0.71,-1.87 -1.77,-3.78 -1.37,-5.86 2.32,2.19 4.32,4.68 6.38,7.1 l 0.24,-0.01 c 1.71,2.68 3.43,5.35 5,8.12 2.51,-1.26 4.99,-2.58 7.46,-3.92 -0.5,-1.27 -0.99,-2.55 -1.46,-3.82 -1.26,-4.43 -5.17,-7.28 -6.95,-11.45 1.41,0.15 2.81,0.31 4.22,0.48 3.94,4 7.11,8.66 10.11,13.38 5.31,-2.42 10.63,-4.82 15.87,-7.39 -5.81,-8.52 -11.42,-17.18 -16.59,-26.11 -2.62,-4.88 -7.11,-8.29 -10.67,-12.41 -3.48,-4.03 -8.15,-6.7 -12.34,-9.88 -2.19,-10.16 -4.16,-20.37 -6.38,-30.52 -0.91,-3.88 -3.61,-6.91 -6.33,-9.67 -2.96,2.01 -6.92,2.87 -8.87,6.1 M 129.91,466.47 c 6.23,-4.8 12.03,-10.13 18.15,-15.08 -1.39,-3.76 -2.59,-7.65 -5.08,-10.87 -5.88,7.77 -8.95,17.21 -13.07,25.95 m 181.28,47.69 c -4.01,9.96 -8.17,19.85 -12.26,29.78 -4.36,8.94 -9.29,17.58 -13.74,26.48 l -0.18,-0.01 c -0.42,0.85 -0.83,1.7 -1.24,2.57 0.87,1.03 1.71,2.08 2.63,3.09 2.02,4.93 6.71,7.77 11.21,10.14 1.09,-4.74 2.12,-9.49 3.36,-14.19 0.76,-3.28 0.22,-6.77 1.64,-9.9 1.12,-1.06 2.33,-2.03 3.71,-2.75 0.3,0.65 0.9,1.95 1.21,2.59 -1.46,2.91 -2.87,5.93 -2.93,9.26 0.03,6.21 -2.3,12 -4.08,17.85 4.62,2.54 9.2,5.18 13.76,7.83 0.86,-0.36 1.73,-0.71 2.6,-1.06 0.65,-11.03 0.99,-22.08 1.42,-33.12 0.08,-1.6 0.16,-3.2 0.23,-4.79 -0.02,-5.34 1.38,-10.93 -1.03,-15.96 0.98,-1.37 2.01,-4.07 4.18,-2.71 1.53,2.13 -0.3,4.35 -0.59,6.58 -0.44,4.7 -0.31,9.44 -0.57,14.17 -0.44,12.99 -0.83,26 -1.42,38.99 0.46,0.1 1.38,0.31 1.85,0.41 3.53,-2.28 6.98,-4.72 10.26,-7.35 1.07,-2.81 1.1,-5.96 1.17,-8.94 -0.6,-10.12 -1.05,-20.25 -1.68,-30.37 0.33,-2.4 -0.88,-4.3 -2.67,-5.74 0.8,0.01 2.4,0.01 3.2,0.01 0.7,0.84 0.81,2.01 1.23,3.02 0.07,2.38 0.14,4.77 0.2,7.16 0.29,8.65 0.27,17.3 0.38,25.95 0.97,-1.36 2.24,-2.57 2.8,-4.16 0.18,-4.02 -0.86,-8 -0.7,-12.01 0.33,-2.4 1.01,-4.72 1.59,-7.05 0.78,3.95 -0.06,8.67 3.84,11.23 -0.22,-4.65 0.38,-9.36 -0.6,-13.95 h -0.32 c -0.88,-3.21 -1.9,-6.38 -3.04,-9.5 -2.26,-7.4 -4.68,-14.76 -7.12,-22.1 -3.3,-7.99 -6.92,-15.84 -10.25,-23.81 -0.96,-2.43 -2.47,-4.58 -4.03,-6.65 -1.82,6.22 -2.28,12.77 -4.02,19.01 M 67.12,501.08 c 1.98,2.67 5.37,4.51 6.04,7.97 1.69,7.02 3.35,14.04 5.02,21.06 0.22,1.44 1.11,2.6 2.08,3.64 11.79,12.55 23.57,25.11 35.28,37.74 1.81,1.97 4.26,3.14 6.53,4.49 16.45,9.53 32.86,19.13 49.31,28.68 3.81,9.83 7.65,19.65 11.47,29.49 -0.83,-5.9 -1.87,-11.81 -3.47,-17.54 -11.17,-20.78 -22.62,-41.42 -33.87,-62.16 -1.46,-2.49 -2.47,-5.4 -4.85,-7.18 -10.39,-8.24 -20.55,-16.79 -31.02,-24.92 -5.67,-2.32 -11.9,-3.03 -17.64,-5.19 -5.36,-2.96 -10.23,-6.74 -15.62,-9.65 -3.31,-1.81 -6.2,-4.25 -9.26,-6.43 z" />
</svg>
